<svg xmlns="http://www.w3.org/2000/svg" viewBox="0 0 291 359.5">
  <g id="Camada_2" data-name="Camada 2">
    <g id="Camada_1-2" data-name="Camada 1">
      <path d="M183.56,86.57H152.35a9.7,9.7,0,0,1-8.78,8.78v31.8a9.7,9.7,0,0,1,8.78,8.78h31.21a31.73,31.73,0,0,1,0-49.36Z" style="fill: #fff"/>
      <path d="M223.44,135.93h31.21a9.69,9.69,0,0,1,8.77-8.78V95.35a9.7,9.7,0,0,1-8.77-8.78H223.44a31.73,31.73,0,0,1,0,49.36Z" style="fill: #fff"/>
      <path d="M203.5,76v8.64h2.41v5.73A24.56,24.56,0,0,1,212.84,92a46.38,46.38,0,0,1,5.61,2.67l-4.08,7.72a4.65,4.65,0,0,0-1-.74,20.31,20.31,0,0,0-2.1-1.11c-.85-.39-1.79-.77-2.83-1.13a16.83,16.83,0,0,0-3.15-.77v7.72l1.81.45a49.12,49.12,0,0,1,5.22,1.73,14.17,14.17,0,0,1,4,2.33,9.3,9.3,0,0,1,2.49,3.38,11.63,11.63,0,0,1,.88,4.76,12.2,12.2,0,0,1-1.13,5.51,10.46,10.46,0,0,1-3,3.71,13.3,13.3,0,0,1-4.37,2.19,21.33,21.33,0,0,1-5.19.85v6.58H203.5v8.64H274V76Zm19.94,10.57h31.21a9.7,9.7,0,0,0,8.77,8.78v31.8a9.69,9.69,0,0,0-8.77,8.78H223.44a31.73,31.73,0,0,0,0-49.36Z" style="fill: #678b00"/>
      <path d="M209.66,119.93a2.64,2.64,0,0,0-1.2-2.3,12.88,12.88,0,0,0-3.17-1.5v6.81C208.2,122.83,209.66,121.82,209.66,119.93Z" style="fill: #678b00"/>
      <path d="M198.65,101.89a2.77,2.77,0,0,0,1,2.24,9,9,0,0,0,3,1.45v-7Q198.65,98.93,198.65,101.89Z" style="fill: #8dbe00"/>
      <path d="M203.5,137.86H202v-6.64a34.32,34.32,0,0,1-7.75-1.58,28,28,0,0,1-6.89-3.3l4.08-8.11a6.49,6.49,0,0,0,1.22.94,20.82,20.82,0,0,0,2.53,1.36,36.3,36.3,0,0,0,3.46,1.36,22.07,22.07,0,0,0,4,.94v-7.55l-2.72-.8a32.73,32.73,0,0,1-4.83-1.84,12.71,12.71,0,0,1-3.37-2.3,8.38,8.38,0,0,1-2-3,11.16,11.16,0,0,1-.65-4,12.84,12.84,0,0,1,1-5.25,12.3,12.3,0,0,1,2.75-3.94,12.59,12.59,0,0,1,4.09-2.58A18.8,18.8,0,0,1,202,90.37V84.64h1.5V76H133v70.5h70.5Zm-19.94-1.93H152.35a9.7,9.7,0,0,0-8.78-8.78V95.35a9.7,9.7,0,0,0,8.78-8.78h31.21a31.73,31.73,0,0,0,0,49.36Z" style="fill: #8dbe00"/>
      <path d="M202,90.37a18.8,18.8,0,0,0-5.08,1.22,12.59,12.59,0,0,0-4.09,2.58,12.3,12.3,0,0,0-2.75,3.94,12.84,12.84,0,0,0-1,5.25,11.12,11.12,0,0,0,.65,4,8.38,8.38,0,0,0,2,3,12.71,12.71,0,0,0,3.37,2.3,32.73,32.73,0,0,0,4.83,1.84l2.72.8v7.55a22.07,22.07,0,0,1-4-.94,33.82,33.82,0,0,1-3.46-1.36,20.21,20.21,0,0,1-2.53-1.36,6.49,6.49,0,0,1-1.22-.94l-4.08,8.11a28,28,0,0,0,6.89,3.3,34.89,34.89,0,0,0,7.75,1.59v6.63h3.91v-6.58a20.86,20.86,0,0,0,5.19-.85,13.3,13.3,0,0,0,4.37-2.19,10.46,10.46,0,0,0,3-3.71,12.18,12.18,0,0,0,1.13-5.5,11.64,11.64,0,0,0-.88-4.77,9.3,9.3,0,0,0-2.49-3.38,14.27,14.27,0,0,0-4-2.33,49.12,49.12,0,0,0-5.22-1.73l-1.81-.45V98.65a17.65,17.65,0,0,1,3.15.77c1,.36,2,.74,2.83,1.13a19.32,19.32,0,0,1,2.1,1.11,4.65,4.65,0,0,1,1,.74l4.08-7.72A47.94,47.94,0,0,0,212.84,92a24.56,24.56,0,0,0-6.93-1.64V84.64H202Zm3.29,25.76a12.88,12.88,0,0,1,3.17,1.5,2.64,2.64,0,0,1,1.2,2.3c0,1.89-1.46,2.9-4.37,3Zm-2.67-10.55a9,9,0,0,1-3-1.45,2.77,2.77,0,0,1-1-2.24q0-3,4-3.29Z" style="fill: #fff"/>
      <path d="M137.84,309H25C11.16,308.77.12,298.34,0,285.61L1.24,22.7C1.24,10.09,12.4-.11,26,0L139.46.46c13.63,0,24.66,10.32,24.54,22.93L162.76,286.3C162.63,298.8,151.48,309,137.84,309Z" style="fill: #40231a"/>
      <path d="M139.08,10.32l-21.94-.11a5.14,5.14,0,0,0-5.33,5.16V19a5.36,5.36,0,0,1-5.33,5.16L63.59,24a5.36,5.36,0,0,1-5.33-5.15V15.14A5.2,5.2,0,0,0,52.93,10H45.25L26,9.86C16.49,9.86,8.68,17,8.68,25.8L7.56,282.4c0,8.83,7.69,16.05,17.23,16.05l113.18.46c9.54,0,17.35-7.11,17.35-15.94l1.12-256.6C156.31,17.66,148.63,10.44,139.08,10.32Z" style="fill: #fefbf5"/>
      <path d="M122.22,62.13H103.56v6h18.66Z" style="fill: #fdc000"/>
      <path d="M111.14,43.5a12.82,12.82,0,0,0-7.46-5.9l-.89-.08s-.77.57-1.11,5.43a9.33,9.33,0,0,0,1.92,5.16,5.4,5.4,0,0,0-.71,2.79c.15,1.45,1.91,9.54,10,9.88,0,0,6.5.56,9.59-7.58,0,0,.71-3.05-.77-5.16A14.25,14.25,0,0,0,123.4,43a9.36,9.36,0,0,0-1-5.65A11.58,11.58,0,0,0,118.73,39c-1.75,1.27-2.69,1.34-4.5,4.62A4.41,4.41,0,0,0,111.14,43.5Z" style="fill: #160c09"/>
      <path d="M102.91,38.34s-.26,1.82-.33,3.27a9,9,0,0,0,1.66,5.9.74.74,0,0,1,.08.63,10.87,10.87,0,0,0-.15,4.46c.63,2.23,3.72,7.5,8.84,7.16a8.55,8.55,0,0,0,7-4s1.74-2.78,1.43-4.23a17.65,17.65,0,0,1-.4-3.13,18.19,18.19,0,0,1,.9-3,16.53,16.53,0,0,0,.69-4.39,28.32,28.32,0,0,0-.39-3.12,30.77,30.77,0,0,0-4.61,2.72,11.31,11.31,0,0,0-2.85,3.75,18.41,18.41,0,0,0-4-.15,15.9,15.9,0,0,0-3.46-3.75C105.6,39.46,105,38.83,102.91,38.34Z" style="fill: #fd4100"/>
      <path d="M103.46,39.39s.26,3.82.21,4.54A8.39,8.39,0,0,0,105,46.71a7.28,7.28,0,0,0,1.11,1c.21.07-1-1.83-1-1.83v-.67a4.92,4.92,0,0,0,1.11,1.33c.63.42.07-.41.07-.41a18.17,18.17,0,0,1-.4-2.37c.09-.23,1.82,1.52,1.82,1.52a.71.71,0,0,0,.77.34l-.4-2.09s1.81,1.38,2.07,1.26-2.48-3.2-2.48-3.2S105.71,39.45,103.46,39.39Z" style="fill: #faedd7"/>
      <path d="M115.53,44.88a11.08,11.08,0,0,1,6.23-5.9,34,34,0,0,1,.08,4.46,32.94,32.94,0,0,1-1.74,3.67,9.15,9.15,0,0,0,.21-2.15,7.65,7.65,0,0,1-1.19,1.94,17.57,17.57,0,0,0,.4-3.49s-1.88,1.6-2.06,1.89.26-1.75.07-2S115.53,44.88,115.53,44.88Z" style="fill: #faedd7"/>
      <path d="M108.85,58.8s-1.37-2.64-2.07-3.9-1.67-3.41-.89-4.16a2.28,2.28,0,0,1,1.87-.56s2.29.62,2.54.15a1.86,1.86,0,0,0,.08-1.19,2.24,2.24,0,0,1,2.29-1.53A2,2,0,0,1,114.88,49s-.15,1.53.64,1.53a4.42,4.42,0,0,0,1.66-.49s2.36-.49,2.78,1a3.69,3.69,0,0,1-.21,2.64s-1.67,2.64-2,3.35l-.34.7-.56,1C117,58.73,112.65,61.14,108.85,58.8Z" style="fill: #faedd7"/>
      <path d="M112.43,51.08V50.3a2.54,2.54,0,0,1-1.18-.7.91.91,0,0,1,.26-1.26,7.87,7.87,0,0,1,2.35,0s1,.49.56,1a3.42,3.42,0,0,1-1.32.9l-.07.9a1.9,1.9,0,0,1,1,.07c.4.23,1,.63,1,.63s1.32.33,1.58-.08c0,0,.22-1,.71-.7a.53.53,0,0,1,.26.63s0,0,0,.07a1.14,1.14,0,0,1-.71.56,2.55,2.55,0,0,1-2.22-.22,2,2,0,0,0-1.74-.56,3.26,3.26,0,0,0-1.92.62,3.55,3.55,0,0,1-2.43.15c-.27-.26-.78-.62-.4-1s.69.63.69.63.4.56,1.44,0A6,6,0,0,1,112.43,51.08Z" style="fill: #160c09"/>
      <path d="M110,48a.5.5,0,0,1-.07.26s0,.42.71-.33a2.26,2.26,0,0,0-1-1s-.34.07-.08.34l.34.33a4.2,4.2,0,0,0-1.18-.15c-.4.08-1.19.23-1.44.63,0,0,.08.22.22.15a2.13,2.13,0,0,1,1.32-.49A2,2,0,0,1,110,48Z" style="fill: #160c09"/>
      <path d="M115.68,48.21s-.71-.07-.77-.56,1-.9,1-.9.21.22,0,.26-.4.15-.47.34a6.56,6.56,0,0,1,2.14,0,2.53,2.53,0,0,1,1,.56s-.08.26-.34.08a1.56,1.56,0,0,0-1.32-.41c-.47,0-.92,0-1.37.07A.68.68,0,0,1,115.68,48.21Z" style="fill: #160c09"/>
      <path d="M36,48.13h6.94V58.2A16,16,0,0,1,38,60.45a19.74,19.74,0,0,1-5.45.79,14.33,14.33,0,0,1-6.8-1.59A11.66,11.66,0,0,1,21,55.23a12.17,12.17,0,0,1-1.71-6.45A12.39,12.39,0,0,1,21,42.33a11.76,11.76,0,0,1,4.78-4.43,14.93,14.93,0,0,1,6.93-1.59A15.67,15.67,0,0,1,39,37.49a11.8,11.8,0,0,1,4.59,3.42l-5.11,4.53a6.78,6.78,0,0,0-5.31-2.63,5.65,5.65,0,0,0-4.21,1.6,6,6,0,0,0-1.55,4.35,6.05,6.05,0,0,0,1.54,4.33,5.4,5.4,0,0,0,4.12,1.64A7.38,7.38,0,0,0,36,54.15v-6Z" style="fill: #160c09"/>
      <path d="M32.55,61.54a15.06,15.06,0,0,1-7-1.61,12.2,12.2,0,0,1-4.85-4.54A12.77,12.77,0,0,1,19,48.76a12.58,12.58,0,0,1,1.75-6.61,12.1,12.1,0,0,1,4.91-4.54A15.36,15.36,0,0,1,32.72,36a16.08,16.08,0,0,1,6.37,1.2,12.14,12.14,0,0,1,4.71,3.51L44,41l-5.56,4.93-.2-.24a6.56,6.56,0,0,0-5.09-2.51,5.39,5.39,0,0,0-4,1.5,5.69,5.69,0,0,0-1.47,4.13,5.79,5.79,0,0,0,1.46,4.12A5.11,5.11,0,0,0,33,54.41a7.43,7.43,0,0,0,2.6-.47V47.81H43.2V58.36l-.14.09a16.4,16.4,0,0,1-5,2.29A20.91,20.91,0,0,1,32.55,61.54Zm.17-24.91a14.71,14.71,0,0,0-6.78,1.54,11.55,11.55,0,0,0-4.65,4.32,12.64,12.64,0,0,0,0,12.56,11.51,11.51,0,0,0,4.6,4.31,14.17,14.17,0,0,0,6.67,1.55,20,20,0,0,0,5.38-.77A15.84,15.84,0,0,0,42.59,58V48.44H36.27v5.92l-.19.08a7.76,7.76,0,0,1-3,.6,5.75,5.75,0,0,1-4.34-1.73,6.3,6.3,0,0,1-1.63-4.53,6.37,6.37,0,0,1,1.64-4.58,5.92,5.92,0,0,1,4.41-1.69A7,7,0,0,1,38.48,45l4.65-4.12a11.52,11.52,0,0,0-4.28-3.1A15.47,15.47,0,0,0,32.72,36.63Z" style="fill: #fd4100"/>
      <path d="M65.68,53.15H52.81a3.11,3.11,0,0,0,1.35,1.61,4.56,4.56,0,0,0,2.38.57,6.12,6.12,0,0,0,2.05-.3A7.17,7.17,0,0,0,60.41,54l4,4.05q-2.7,3-8.1,3a13.41,13.41,0,0,1-5.9-1.24,9.52,9.52,0,0,1-3.93-3.45,9.66,9.66,0,0,1,0-10A9.45,9.45,0,0,1,50.21,43a12.32,12.32,0,0,1,10.48-.1,8.88,8.88,0,0,1,3.7,3.3,9.6,9.6,0,0,1,1.37,5.2C65.78,51.46,65.75,52.06,65.68,53.15Zm-12-5.54a3.07,3.07,0,0,0-1,1.84h6a3.17,3.17,0,0,0-1-1.82,3.24,3.24,0,0,0-3.92,0Z" style="fill: #160c09"/>
      <path d="M56.3,61.33a13.58,13.58,0,0,1-6-1.28,9.8,9.8,0,0,1-4.06-3.56,10,10,0,0,1,0-10.29,9.9,9.9,0,0,1,3.88-3.54,11.92,11.92,0,0,1,5.51-1.26,12,12,0,0,1,5.27,1.15A9.25,9.25,0,0,1,64.68,46a9.94,9.94,0,0,1,1.41,5.38c0,.09,0,.36-.09,1.82l0,.29H53.3a2.83,2.83,0,0,0,1,1,4.27,4.27,0,0,0,2.22.51,5.67,5.67,0,0,0,1.94-.29,6.4,6.4,0,0,0,1.73-1l.21-.16L64.81,58l-.2.22C62.76,60.29,60,61.33,56.3,61.33ZM55.58,42a11.5,11.5,0,0,0-5.23,1.18,9.1,9.1,0,0,0-3.63,3.32,8.89,8.89,0,0,0-1.32,4.81,8.75,8.75,0,0,0,1.35,4.8,9.12,9.12,0,0,0,3.8,3.34,13.12,13.12,0,0,0,5.76,1.21c3.35,0,5.93-.9,7.67-2.67l-3.6-3.64a7.21,7.21,0,0,1-1.68.94,6.37,6.37,0,0,1-2.15.32,4.9,4.9,0,0,1-2.52-.6,3.44,3.44,0,0,1-1.5-1.77l-.16-.43h13c0-.9.09-1.4.09-1.49a9.31,9.31,0,0,0-1.32-5,8.56,8.56,0,0,0-3.56-3.19A11.37,11.37,0,0,0,55.58,42ZM59,49.76H52.3l.07-.37a3.37,3.37,0,0,1,1.12-2,3.28,3.28,0,0,1,2.17-.72,3.24,3.24,0,0,1,2.16.74,3.46,3.46,0,0,1,1.12,2Zm-5.94-.62h5.16a2.82,2.82,0,0,0-4.35-1.29A2.78,2.78,0,0,0,53.07,49.14Z" style="fill: #fd4100"/>
      <path d="M81.83,60a9.47,9.47,0,0,1-4.7,1,8.68,8.68,0,0,1-6-1.88A7.26,7.26,0,0,1,69,53.46V48.7H66.49V43.09H69V37.88h7.65v5.2h3.8v5.61h-3.8v4.7a1.88,1.88,0,0,0,.44,1.32,1.49,1.49,0,0,0,1.16.48A3.06,3.06,0,0,0,80,54.68Z" style="fill: #160c09"/>
      <path d="M77.13,61.33a9,9,0,0,1-6.2-2,7.56,7.56,0,0,1-2.2-5.9V49H66.19V42.78h2.54V37.56H77v5.2H80.8V49H77v4.39a1.52,1.52,0,0,0,.36,1.11,1.18,1.18,0,0,0,.92.38,2.67,2.67,0,0,0,1.55-.45l.34-.23,2,6L82,60.3A9.84,9.84,0,0,1,77.13,61.33ZM66.8,48.39h2.54v5.07a7,7,0,0,0,2,5.44,8.42,8.42,0,0,0,5.79,1.81,9.66,9.66,0,0,0,4.33-.82l-1.62-4.73a3.32,3.32,0,0,1-1.55.37A1.83,1.83,0,0,1,76.89,55a2.21,2.21,0,0,1-.52-1.54v-5h3.8v-5h-3.8V38.19h-7v5.2H66.8Z" style="fill: #fd4100"/>
      <path d="M84,36.86h8V54.45h10.7v6.23H84Z" style="fill: #fd4100"/>
      <path d="M103,61H83.69V36.55H92.3V54.14H103V61Zm-18.7-.63h18.08v-5.6H91.69V37.17H84.32V60.36Z" style="fill: #160c09"/>
      <path d="M145.68,42.06V57c0,3.54-1,6.2-2.93,8s-4.74,2.67-8.35,2.67a21.19,21.19,0,0,1-5.17-.6,13.15,13.15,0,0,1-4.1-1.71l2.58-5.24a8.75,8.75,0,0,0,2.74,1.33,10.75,10.75,0,0,0,3.18.51,4.73,4.73,0,0,0,3.35-1A3.77,3.77,0,0,0,138,58v-.34a6.45,6.45,0,0,1-5.11,2,9.14,9.14,0,0,1-4.42-1.1,8.34,8.34,0,0,1-3.27-3.16,9.68,9.68,0,0,1,0-9.41,8.45,8.45,0,0,1,3.27-3.15,9.14,9.14,0,0,1,4.42-1.1c2.53,0,4.35.81,5.49,2.45V42.06Zm-8.49,10.78a2.81,2.81,0,0,0,.9-2.16,2.74,2.74,0,0,0-.9-2.14,3.18,3.18,0,0,0-2.25-.81,3.31,3.31,0,0,0-2.29.81,2.76,2.76,0,0,0-.9,2.14,2.83,2.83,0,0,0,.91,2.16,3.47,3.47,0,0,0,4.53,0Z" style="fill: #fd4100"/>
      <path d="M134.4,67.93a22,22,0,0,1-5.25-.6A13.14,13.14,0,0,1,125,65.56l-.22-.15,2.86-5.82.3.22a8.28,8.28,0,0,0,2.65,1.28,10.89,10.89,0,0,0,3.1.5,4.48,4.48,0,0,0,3.13-.9,3.28,3.28,0,0,0,.93-2.24A7.13,7.13,0,0,1,132.92,60a9.55,9.55,0,0,1-4.56-1.14A8.68,8.68,0,0,1,125,55.56a9.48,9.48,0,0,1-1.27-4.87A9.37,9.37,0,0,1,125,45.83a8.87,8.87,0,0,1,3.39-3.27,9.43,9.43,0,0,1,4.56-1.13,6.87,6.87,0,0,1,5.18,1.88V41.75H146V57c0,3.62-1,6.38-3,8.22S138.07,67.93,134.4,67.93Zm-8.88-2.74a13.09,13.09,0,0,0,3.77,1.52,21.29,21.29,0,0,0,5.1.59c3.52,0,6.26-.87,8.14-2.59s2.82-4.31,2.82-7.75V42.38H138.7v2.8l-.58-.83C137.07,42.81,135.3,42,132.9,42a9,9,0,0,0-4.27,1.06,8.21,8.21,0,0,0-3.15,3,8.72,8.72,0,0,0-1.17,4.54,8.91,8.91,0,0,0,1.17,4.55,8.3,8.3,0,0,0,3.15,3.05,8.89,8.89,0,0,0,4.27,1.06,6.21,6.21,0,0,0,4.88-1.86l.54-.63V58a4.11,4.11,0,0,1-1.14,3.12,5.1,5.1,0,0,1-3.57,1.08,11,11,0,0,1-3.27-.53,9.33,9.33,0,0,1-2.54-1.16ZM134.94,54a3.59,3.59,0,0,1-2.48-.92,3.31,3.31,0,0,1,0-4.76,3.57,3.57,0,0,1,2.5-.9,3.52,3.52,0,0,1,2.46.9,3.33,3.33,0,0,1,0,4.76A3.41,3.41,0,0,1,134.94,54Zm0-5.95a2.92,2.92,0,0,0-2.08.73,2.69,2.69,0,0,0,0,3.84,2.92,2.92,0,0,0,2.07.75,2.89,2.89,0,0,0,2-.75,2.51,2.51,0,0,0,.8-1.94,2.46,2.46,0,0,0-.8-1.91A2.89,2.89,0,0,0,134.94,48Z" style="fill: #160c09"/>
      <path d="M105.34,67.23a2.05,2.05,0,0,1-.85-.8,2.27,2.27,0,0,1-.31-1.17,2.16,2.16,0,0,1,1.16-2,2.59,2.59,0,0,1,1.22-.29,2.65,2.65,0,0,1,1.11.23,2.09,2.09,0,0,1,.8.64l-.9.81a1.16,1.16,0,0,0-.94-.5.93.93,0,0,0-.72.29,1,1,0,0,0-.27.77,1,1,0,0,0,.27.78,1,1,0,0,0,.72.28,1.16,1.16,0,0,0,.94-.5l.9.82a2.08,2.08,0,0,1-.8.63,2.65,2.65,0,0,1-1.11.23A2.43,2.43,0,0,1,105.34,67.23Z" style="fill: #160c09"/>
      <path d="M108.87,63.14h1.43V66.3h1.93v1.11h-3.36Z" style="fill: #160c09"/>
      <path d="M113.11,67a2,2,0,0,1-.54-1.49V63.14H114v2.31a1.17,1.17,0,0,0,.16.69.57.57,0,0,0,.48.21.58.58,0,0,0,.49-.21,1.15,1.15,0,0,0,.16-.69V63.14h1.41v2.35a2,2,0,0,1-.55,1.49,2.11,2.11,0,0,1-1.53.53A2.06,2.06,0,0,1,113.11,67Z" style="fill: #160c09"/>
      <path d="M121.36,65.59a1,1,0,0,1,.21.65,1,1,0,0,1-.46.87,2.45,2.45,0,0,1-1.34.32h-2.4V63.15h2.28a2.24,2.24,0,0,1,1.28.3,1,1,0,0,1,.43.81,1,1,0,0,1-.15.54,1.09,1.09,0,0,1-.43.39A1,1,0,0,1,121.36,65.59Zm-2.58-1.45v.64h.67c.31,0,.47-.1.47-.32s-.16-.31-.47-.31h-.67Zm1.34,1.92c0-.22-.16-.33-.47-.33h-.86v.67h.86C120,66.4,120.12,66.29,120.12,66.06Z" style="fill: #160c09"/>
      <path d="M62.22,192.6a3.81,3.81,0,0,1,2.52.77,2.9,2.9,0,0,1,0,4.22,3.81,3.81,0,0,1-2.52.76H60V201h-.88v-8.4Zm0,5A2.94,2.94,0,0,0,64.1,197a1.92,1.92,0,0,0,.66-1.55,1.9,1.9,0,0,0-.66-1.56,2.88,2.88,0,0,0-1.91-.55H60v4.2Zm10.66.54H67.57a2.26,2.26,0,0,0,.76,1.59,2.51,2.51,0,0,0,1.73.6,2.73,2.73,0,0,0,1.08-.2,2.45,2.45,0,0,0,.85-.62l.48.55a2.77,2.77,0,0,1-1.06.77,3.57,3.57,0,0,1-1.38.26,3.62,3.62,0,0,1-1.73-.41,3.05,3.05,0,0,1-1.16-1.15,3.28,3.28,0,0,1-.42-1.66,3.36,3.36,0,0,1,.4-1.65,2.94,2.94,0,0,1,1.1-1.14,3.25,3.25,0,0,1,3.16,0,2.92,2.92,0,0,1,1.09,1.14,3.41,3.41,0,0,1,.39,1.65Zm-3-2.74a2.15,2.15,0,0,0-1.53.59,2.28,2.28,0,0,0-.7,1.51h4.48a2.25,2.25,0,0,0-.71-1.51A2.14,2.14,0,0,0,69.8,195.37Zm10.56-3.27V201h-.82v-1.25a2.44,2.44,0,0,1-1,1,2.86,2.86,0,0,1-1.41.34,3.21,3.21,0,0,1-1.61-.41,2.88,2.88,0,0,1-1.13-1.14,3.39,3.39,0,0,1-.41-1.67,3.35,3.35,0,0,1,.41-1.66,2.79,2.79,0,0,1,1.13-1.13,3.21,3.21,0,0,1,1.61-.41,3,3,0,0,1,1.38.32,2.67,2.67,0,0,1,1,.93V192.1Zm-3.18,8.2a2.39,2.39,0,0,0,1.19-.3,2.13,2.13,0,0,0,.84-.87,2.73,2.73,0,0,0,.31-1.29,2.69,2.69,0,0,0-.31-1.28,2.05,2.05,0,0,0-.84-.86,2.31,2.31,0,0,0-1.19-.32,2.35,2.35,0,0,0-1.21.32,2.05,2.05,0,0,0-.84.86,2.69,2.69,0,0,0-.3,1.28,2.73,2.73,0,0,0,.3,1.29A2.13,2.13,0,0,0,76,200,2.44,2.44,0,0,0,77.18,200.3Zm5.55-5.61h.85V201h-.85Zm.43-1.38a.6.6,0,0,1-.44-.18.6.6,0,0,1-.18-.43.58.58,0,0,1,.18-.42.6.6,0,0,1,.44-.18.61.61,0,0,1,.45.18.52.52,0,0,1,.18.4.62.62,0,0,1-.63.63Zm8.55-1.21V201H90.9v-1.25a2.57,2.57,0,0,1-1,1,2.9,2.9,0,0,1-1.42.34,3.24,3.24,0,0,1-1.61-.41,2.86,2.86,0,0,1-1.12-1.14,3.28,3.28,0,0,1-.41-1.67,3.25,3.25,0,0,1,.41-1.66,2.77,2.77,0,0,1,1.12-1.13,3.24,3.24,0,0,1,1.61-.41,3,3,0,0,1,1.38.32,2.53,2.53,0,0,1,1,.93V192.1Zm-3.18,8.2a2.36,2.36,0,0,0,1.19-.3,2.13,2.13,0,0,0,.84-.87,2.62,2.62,0,0,0,.31-1.29,2.58,2.58,0,0,0-.31-1.28,2.05,2.05,0,0,0-.84-.86,2.28,2.28,0,0,0-1.19-.32,2.38,2.38,0,0,0-1.21.32,2.17,2.17,0,0,0-.84.86,2.69,2.69,0,0,0-.3,1.28,2.73,2.73,0,0,0,.3,1.29,2.27,2.27,0,0,0,.84.87A2.47,2.47,0,0,0,88.53,200.3Zm8.14.76a3.36,3.36,0,0,1-1.65-.41,3,3,0,0,1-1.15-1.15,3.47,3.47,0,0,1,0-3.31A2.93,2.93,0,0,1,95,195.05a3.51,3.51,0,0,1,3.29,0,2.84,2.84,0,0,1,1.14,1.14,3.47,3.47,0,0,1,0,3.31,2.93,2.93,0,0,1-1.14,1.15A3.35,3.35,0,0,1,96.67,201.06Zm0-.76a2.43,2.43,0,0,0,1.2-.3,2.13,2.13,0,0,0,.84-.87,2.73,2.73,0,0,0,.3-1.29,2.69,2.69,0,0,0-.3-1.28,2.05,2.05,0,0,0-.84-.86,2.34,2.34,0,0,0-1.2-.32,2.39,2.39,0,0,0-1.22.32,2.17,2.17,0,0,0-.84.86,2.69,2.69,0,0,0-.3,1.28,2.73,2.73,0,0,0,.3,1.29,2.27,2.27,0,0,0,.84.87A2.48,2.48,0,0,0,96.67,200.3Zm6.63.76a4.8,4.8,0,0,1-1.47-.22,3.32,3.32,0,0,1-1.1-.56l.39-.67a3.07,3.07,0,0,0,1,.51,4,4,0,0,0,1.25.2,2.33,2.33,0,0,0,1.27-.27.87.87,0,0,0,.42-.77.67.67,0,0,0-.22-.54,1.68,1.68,0,0,0-.58-.3,7,7,0,0,0-.92-.2,11.15,11.15,0,0,1-1.24-.29,1.83,1.83,0,0,1-.8-.51,1.44,1.44,0,0,1-.33-1,1.57,1.57,0,0,1,.66-1.3,3,3,0,0,1,1.84-.5,4.66,4.66,0,0,1,1.22.17,3,3,0,0,1,1,.42l-.37.68a3.19,3.19,0,0,0-1.86-.54,2.2,2.2,0,0,0-1.24.29.89.89,0,0,0-.41.76.75.75,0,0,0,.23.57,1.62,1.62,0,0,0,.59.33c.23.06.55.13,1,.2a10.93,10.93,0,0,1,1.21.29,1.68,1.68,0,0,1,.78.49,1.33,1.33,0,0,1,.33,1,1.56,1.56,0,0,1-.7,1.32A3.29,3.29,0,0,1,103.3,201.06Z" style="fill: #160c09"/>
      <path d="M90.38,256.76c-.12,2.68-.24,5.16-.36,7.24h16l-2-8Z" style="fill: #f8f0ee"/>
      <path d="M25.23,260l.13,4H88.43c.12-2.18.24-4.66.36-7.24Z" style="fill: #f8f0ee"/>
      <path d="M104.93,256l2,8h29.57l-.36-9.62Z" style="fill: #f8f0ee"/>
      <path d="M92,143.71l5.62-26.28-14.66-.89v27.17Z" style="fill: #f8f0ee"/>
      <path d="M23.89,245.46,8,250.51v9.13l16.38-.9Z" style="fill: #f8f0ee"/>
      <path d="M23.89,243.47,23,219v-8.63L8.24,211.64,8,248.53Z" style="fill: #f8f0ee"/>
      <path d="M22.91,191,8.24,189.43l-.12,20.13,14.67-1.29V191Z" style="fill: #f8f0ee"/>
      <path d="M131.82,210.65l-.61,7L114,219.18l1.35,5.55,19.56-1.19-.25-7.93,1.59-5.26Z" style="fill: #f8f0ee"/>
      <path d="M100.77,225.62l13.81-.89-3-12.49-12,1Z" style="fill: #f8f0ee"/>
      <path d="M100.89,226.91l1,10.41,1.84,14.28.73,3.08,31.41-1.59-1.1-28.26Z" style="fill: #f8f0ee"/>
      <path d="M46.75,177.92,48,179.61l-24.2,11.5v27.18l25.54-1.49,49.39-4.07-1.84-17.85-47.06-5,.37-2,46.57,5-3.06-30.15L47.6,166.32,47.48,165l46.08-3.57L92,145.7H47.6l-39,5.75-.24,36.09,14.79,1.59ZM26.21,215.71s.12-22.42,0-23.31L46,183.87l2.57,30.65Z" style="fill: #f8f0ee"/>
      <path d="M130.23,210.85l-18,1.49,1.35,5.65,16-1.39Z" style="fill: #f8f0ee"/>
      <path d="M90.63,251.9c0,1.19-.12,2.38-.12,3.47l13.32-.69-.73-2.78Z" style="fill: #f8f0ee"/>
      <path d="M61.9,143.81l2.33-8.63h18V116.64l-56-3.37v17.45L8.73,133.9l-.12,15.66,38.75-5.75Z" style="fill: #f8f0ee"/>
      <path d="M23.77,113.07l-15-.89-.12,19.73,15-2.78V113.07Z" style="fill: #f8f0ee"/>
      <path d="M18.51,78.17,9,77.07,8.86,109l2.07.1Z" style="fill: #f8f0ee"/>
      <path d="M48.7,243.08,49,217.49,23.77,219l.85,25.09Z" style="fill: #f8f0ee"/>
      <path d="M53.35,237.13,89,251c.49-9.12.85-17.55.85-18h.86l.37-.59c.49.2.49.2.24,6.34-.12,3.47-.37,8-.61,12.6H103.1l-1.84-13.89-2.44-24-46.57,3.76Z" style="fill: #f8f0ee"/>
      <path d="M140.87,194.68l-.37-3.37-42.78,3.57,1.83,17.75,36.91-3Z" style="fill: #f8f0ee"/>
      <path d="M82.07,137.07h-16l-1.83,6.74H82.07Z" style="fill: #f8f0ee"/>
      <path d="M134.26,139.35l-40-2.28-1.58,7.64,1.71,16.65,42.17-3.27Zm-38.62,5.36,2.2-4.86,34.71,1.78,2,13.88-37.77,3.67Z" style="fill: #f8f0ee"/>
      <path d="M138.42,174.16l-1.71-14.68-42.17,3.27,1.59,15.67Z" style="fill: #f8f0ee"/>
      <path d="M89,251.7,52.61,237.52l-1.34-20.33-1.47.1-.24,26.28-24.81,1v.6l.48,13.58,63.69-3.27C88.92,254.28,88.92,253,89,251.7Zm-62.83-5.35,34.72-2,22.61,8.52-57.33,2.48Z" style="fill: #f8f0ee"/>
      <path d="M144,106.72l1.47-7.14c-13.08-3.76-13.94-14.87-13.94-18.14L123,84.21l12.83,20.93Z" style="fill: #f8f0ee"/>
      <path d="M97.47,193l17.73-1.49-3.55-12.69L96.13,180.4Z" style="fill: #f8f0ee"/>
      <path d="M134.26,117.73H101.14l-2.81-.2-3.79,17.65,39.36,2.19-.86-7.64,3.91-11.3Z" style="fill: #f8f0ee"/>
      <path d="M133.41,114.46l.36-8.43L120.7,84.81l-20.17,6.44,7,23.11ZM120.09,87.39l12,18.44-1.71,5.75-20.41-.69-5.13-17.45Z" style="fill: #f8f0ee"/>
      <path d="M138.66,215.9l.61,16.56,14.43-.69v.69l-14.43.7.74,19.73,13.57-.69.12,1.29-13.69.69.37,9.82h13.2l.24-55.14L140.25,210Z" style="fill: #f8f0ee"/>
      <path d="M51.27,81.93,20.83,78.36,13.26,109.1l38.13,2.29C51.51,106.72,51.39,92.15,51.27,81.93Z" style="fill: #f8f0ee"/>
      <path d="M52.13,111.49l29.94,1.78-.36-19.93-29.46,1C52.25,101.07,52.25,108.21,52.13,111.49Z" style="fill: #f8f0ee"/>
      <path d="M138.54,176l-26.15,2.58,3.54,12.69,24.2-2.08Z" style="fill: #f8f0ee"/>
      <path d="M145.63,98.89l1.71-8,7.21.49L154.68,74l-22.25,7.14C131.94,93.34,141.35,97.6,145.63,98.89Z" style="fill: #f8f0ee"/>
      <path d="M137.07,130l.86,7.63,16.26.9.12-15.67-13.57-3.47Z" style="fill: #f8f0ee"/>
      <path d="M144.9,194.88l-4.28,14.38,13.32-1.09.13-15.17c-4.16-.9-7.7-1.59-9.66-1.89Z" style="fill: #f8f0ee"/>
      <path d="M135.85,114.66l18.58,4.76v-8.53L136.22,107Z" style="fill: #f8f0ee"/>
      <path d="M144.16,189.23c3.3.5,6.6,1.09,9.78,1.88l.13-33.12-13.57,1.09Z" style="fill: #f8f0ee"/>
      <path d="M140.38,157.79l13.81-1.09.12-16.26-16-.89Z" style="fill: #f8f0ee"/>
      <path d="M147.22,99.29c2.44.59,4.77,1.09,7.33,1.49V92.54l-5.86-.39Z" style="fill: #f8f0ee"/>
      <path d="M145.63,107l8.8,1.89v-7.44c-2.32-.4-4.77-.89-7.45-1.49Z" style="fill: #f8f0ee"/>
      <path d="M60.93,244.37l-34.72,2v9l57.33-2.48Z" style="fill: #eedad5"/>
      <path d="M132.55,141.73,97.84,140l-2.2,4.85,1.22,14.38,37.77-3.67Z" style="fill: #eedad5"/>
      <path d="M26.21,192.4c.25.8,0,23.31,0,23.31l22.37-1.19L46,183.88Z" style="fill: #eedad5"/>
      <path d="M100.77,210.65l-1.22-13.88,38.38-4v2.38L133.29,208Z" style="fill: #eedad5"/>
      <path d="M72.42,95.32c0,2.08-2.08,3.77-4.65,3.77s-4.64-1.69-4.64-3.77,2.07-3.77,4.64-3.77S72.42,93.24,72.42,95.32Z" style="fill: #ff703e"/>
      <g style="opacity: 0.6000000238418579">
        <path d="M72.35,95.19c.13,2.08-1.83,3.87-4.52,4s-4.77-1.49-4.89-3.67,1.83-3.87,4.52-4S72.23,93,72.35,95.19Z" style="fill: #fff;opacity: 0.6000000238418579;isolation: isolate"/>
      </g>
      <path d="M67.77,97.7a2.53,2.53,0,1,0-3.06-2.48A2.82,2.82,0,0,0,67.77,97.7Z" style="fill: #ff703e"/>
      <path d="M139.89,246.55c0,.89-1,1.58-2.08,1.58a1.85,1.85,0,0,1-2-1.68c0-.9,1-1.59,2.08-1.59a2.2,2.2,0,0,1,1.35.5A1.88,1.88,0,0,1,139.89,246.55Z" style="fill: #ff703e"/>
      <path d="M136.71,246.05l-.49-9.12-33.74,1.29a7.6,7.6,0,0,1-2.56-.4L52.13,218.29a3.16,3.16,0,0,1-2-2.39L43.69,113.57a1.93,1.93,0,0,1,2-1.79h.24L66.43,113V94.82h2.44v18.45a1.89,1.89,0,0,1-.61,1.29,2.93,2.93,0,0,1-1.59.49l-20.41-1.19,6.48,102a.77.77,0,0,0,.61.7l47.79,19.63a2,2,0,0,0,1.34.2l34-1.39a2.27,2.27,0,0,1,1.59.5,1.64,1.64,0,0,1,.74,1.19l.49,9.32Z" style="fill: #ff703e"/>
      <path d="M47.72,162.85c3.31,0,6-2.17,6-4.86s-2.68-4.86-6-4.86-6,2.18-6,4.86S44.42,162.85,47.72,162.85Z" style="fill: #ff703e"/>
      <path d="M47.72,161.36c2.3,0,4.16-1.51,4.16-3.37s-1.86-3.37-4.16-3.37-4.15,1.51-4.15,3.37S45.43,161.36,47.72,161.36Z" style="fill: #fafafa"/>
      <path d="M47.72,161.66c-2.44,0-4.52-1.59-4.52-3.67s2-3.67,4.52-3.67,4.53,1.59,4.53,3.67S50.17,161.66,47.72,161.66Zm0-6.84c-2.2,0-3.91,1.39-3.91,3.17s1.71,3.18,3.91,3.18,3.92-1.39,3.92-3.18S49.93,154.82,47.72,154.82Z" style="fill: #ff703e"/>
      <path d="M83.29,137.46H54.45a2.39,2.39,0,0,0-2.57,2.09V148a2.37,2.37,0,0,0,2.57,2.08h.36v2l2.94-2H83.29A2.38,2.38,0,0,0,85.86,148v-8.43A2.31,2.31,0,0,0,83.29,137.46Z" style="fill: #ff703e"/>
      <g style="opacity: 0.4000000059604645">
        <path d="M83.29,137.44H54.44a2.38,2.38,0,0,0-2.56,2.09V148A2.37,2.37,0,0,0,54.44,150h.37v2l2.94-2H83.29A2.38,2.38,0,0,0,85.86,148v-8.43A2.31,2.31,0,0,0,83.29,137.44Z" style="fill: #fff;opacity: 0.4000000059604645;isolation: isolate"/>
      </g>
      <path d="M58.48,143.61c0-.79.73-1.38,1.71-1.48A1.75,1.75,0,0,1,62,143.51c.12.8-.74,1.39-1.72,1.49S58.48,144.41,58.48,143.61Zm2.93,0a1.25,1.25,0,1,0-1.22,1C60.93,144.6,61.41,144.21,61.41,143.61Z" style="fill: #fff"/>
      <path d="M65.08,143.91a1.08,1.08,0,0,1-1.1,1h-.12a1.07,1.07,0,0,1-.86-.3v.3h-.49v-2.77H63v1.09a1.25,1.25,0,0,1,.86-.3,1.13,1.13,0,0,1,1.22,1Zm-.37,0q-.36,0-.36.3t.36.3c.25,0,.37-.1.37-.3S64.84,143.91,64.71,143.91Z" style="fill: #fff"/>
      <path d="M65,145.6l.12-.3a.52.52,0,0,0,.37.1c.24,0,.37-.1.37-.4v-2.08h.48V145a.77.77,0,0,1-.61.7h-.12A2.88,2.88,0,0,1,65,145.6Zm.73-3.28c0-.09.13-.29.25-.29s.36.1.36.2-.12.29-.24.29S65.69,142.42,65.69,142.32Z" style="fill: #fff"/>
      <path d="M69.24,144h-2c0,.4.49.6.86.6a2,2,0,0,0,.73-.2l.25.2a1.79,1.79,0,0,1-2,0,.86.86,0,0,1-.37-.7,1.09,1.09,0,0,1,1.1-1H68c.61,0,1.22.4,1.22.89v.2Zm-2-.2h1.59a.77.77,0,0,0-.85-.69A.74.74,0,0,0,67.28,143.81Z" style="fill: #fff"/>
      <path d="M69.73,143.91c0-.59.49-1,1.22-1h.12a1.22,1.22,0,0,1,1,.4l-.37.19a.71.71,0,0,0-.61-.29.67.67,0,0,0-.73.79.72.72,0,0,0,.73.6.69.69,0,0,0,.61-.3l.37.2a1.24,1.24,0,0,1-1,.39,1.11,1.11,0,0,1-1.34-1Z" style="fill: #fff"/>
      <path d="M74,144.8a.84.84,0,0,1-.48.1.78.78,0,0,1-.86-.49v-1.29h-.37v-.3h.37v-.4h.49v.4h.73v.3h-.73v1.09c0,.2.12.3.24.3h.13a.5.5,0,0,0,.36-.1Z" style="fill: #fff"/>
      <path d="M74.49,142.32c0-.09.13-.19.25-.19s.24.1.24.19a.35.35,0,0,1-.36.3C74.37,142.62,74.49,142.42,74.49,142.32Zm0,.6H75v2h-.49Z" style="fill: #fff"/>
      <path d="M78,142.92l-1.1,2h-.49l-1.1-2h.49l.85,1.59.86-1.59Z" style="fill: #fff"/>
      <path d="M80.61,144h-2c0,.4.49.6.85.6a2,2,0,0,0,.74-.2l.24.2a1.63,1.63,0,0,1-1,.29,1.28,1.28,0,0,1-1.34-.89v-.1a1.09,1.09,0,0,1,1.1-1h.12c.61,0,1.23.4,1.23.89v.2Zm-2.08-.2h1.59a.77.77,0,0,0-.86-.69A.73.73,0,0,0,78.53,143.81Z" style="fill: #fff"/>
      <path d="M176.19,283.42H136.56a12.3,12.3,0,0,1-11.13,11.14v40.38a12.3,12.3,0,0,1,11.13,11.14h39.63a40.29,40.29,0,0,1,0-62.66Z" style="fill: #fff"/>
      <path d="M226.81,346.08h39.63a12.3,12.3,0,0,1,11.14-11.14V294.56a12.3,12.3,0,0,1-11.14-11.14H226.81a40.29,40.29,0,0,1,0,62.66Z" style="fill: #fff"/>
      <path d="M201.5,270v11h3.06v7.28a30.88,30.88,0,0,1,8.79,2.09,58.55,58.55,0,0,1,7.13,3.38l-5.19,9.8a5.66,5.66,0,0,0-1.26-.94,25,25,0,0,0-2.66-1.4q-1.62-.75-3.6-1.44a21.19,21.19,0,0,0-4-1v9.79l2.3.58a61.29,61.29,0,0,1,6.63,2.2,17.92,17.92,0,0,1,5,2.95,12.07,12.07,0,0,1,3.17,4.29,15,15,0,0,1,1.11,6.05,15.53,15.53,0,0,1-1.44,7,13.33,13.33,0,0,1-3.85,4.72,17.21,17.21,0,0,1-5.55,2.77,27.19,27.19,0,0,1-6.59,1.08v8.36H201.5v11H291V270Zm25.31,13.42h39.63a12.3,12.3,0,0,0,11.14,11.14v40.38a12.3,12.3,0,0,0-11.14,11.14H226.81a40.29,40.29,0,0,0,0-62.66Z" style="fill: #678b00"/>
      <path d="M209.32,325.77a3.36,3.36,0,0,0-1.52-2.92,16.71,16.71,0,0,0-4-1.9v8.64C207.47,329.45,209.32,328.17,209.32,325.77Z" style="fill: #678b00"/>
      <path d="M195.34,302.86a3.5,3.5,0,0,0,1.26,2.85,11.25,11.25,0,0,0,3.78,1.84v-8.86C197,299,195.34,300.37,195.34,302.86Z" style="fill: #8dbe00"/>
      <path d="M201.5,348.54h-1.91v-8.43a43.83,43.83,0,0,1-9.83-2,35.22,35.22,0,0,1-8.75-4.18l5.18-10.3a7.9,7.9,0,0,0,1.55,1.19,25.28,25.28,0,0,0,3.21,1.73,45.77,45.77,0,0,0,4.39,1.73,28.44,28.44,0,0,0,5,1.19v-9.59l-3.45-1a43.66,43.66,0,0,1-6.13-2.35,16.06,16.06,0,0,1-4.28-2.91,10.77,10.77,0,0,1-2.53-3.82,14.1,14.1,0,0,1-.83-5,16.35,16.35,0,0,1,1.3-6.66,15.54,15.54,0,0,1,3.5-5,15.83,15.83,0,0,1,5.18-3.28,24.26,24.26,0,0,1,6.45-1.55V281h1.91V270H112v89.5h89.5Zm-25.31-2.46H136.56a12.3,12.3,0,0,0-11.13-11.14V294.56a12.3,12.3,0,0,0,11.13-11.14h39.63a40.29,40.29,0,0,0,0,62.66Z" style="fill: #8dbe00"/>
      <path d="M199.59,288.24a24.36,24.36,0,0,0-6.45,1.55,15.83,15.83,0,0,0-5.18,3.28,15.54,15.54,0,0,0-3.5,5,16.37,16.37,0,0,0-1.29,6.67,14.09,14.09,0,0,0,.82,5,10.77,10.77,0,0,0,2.53,3.82,16.32,16.32,0,0,0,4.28,2.92,43.72,43.72,0,0,0,6.13,2.34l3.45,1v9.58a27.59,27.59,0,0,1-5-1.19,45.77,45.77,0,0,1-4.39-1.73,25.28,25.28,0,0,1-3.21-1.73,7.9,7.9,0,0,1-1.55-1.19L181,333.91a35.22,35.22,0,0,0,8.75,4.18,43.83,43.83,0,0,0,9.83,2v8.43h5v-8.36a27.19,27.19,0,0,0,6.59-1.08,17.21,17.21,0,0,0,5.55-2.77,13.33,13.33,0,0,0,3.85-4.72,15.5,15.5,0,0,0,1.44-7,15,15,0,0,0-1.11-6.05,12.07,12.07,0,0,0-3.17-4.29,17.92,17.92,0,0,0-5-2.95,61.29,61.29,0,0,0-6.63-2.2l-2.3-.58v-9.79a21.19,21.19,0,0,1,4,1q2,.69,3.6,1.44a26.1,26.1,0,0,1,2.67,1.41,6,6,0,0,1,1.26.93l5.18-9.8a60.08,60.08,0,0,0-7.13-3.38,31.22,31.22,0,0,0-8.79-2.09V281h-5ZM203.77,321a16.33,16.33,0,0,1,4,1.91,3.33,3.33,0,0,1,1.52,2.91c0,2.4-1.85,3.68-5.55,3.82Zm-3.39-13.4a11.25,11.25,0,0,1-3.78-1.84,3.5,3.5,0,0,1-1.26-2.85c0-2.49,1.68-3.89,5-4.17Z" style="fill: #fff"/>
    </g>
  </g>
</svg>
