<svg xmlns="http://www.w3.org/2000/svg" viewBox="0 0 365 334.7">
  <g id="Camada_2" data-name="Camada 2">
    <g id="Camada_1-2" data-name="Camada 1">
      <path d="M330.55,309H182c-18.29-.23-32.82-10.66-33-23.39L150.63,22.7c0-12.61,14.7-22.81,32.66-22.7L332.67.46c18,0,32.49,10.32,32.33,22.93L363.37,286.3C363.2,298.8,348.51,309,330.55,309Z" style="fill: #40231a"/>
      <path d="M332.18,10.32l-28.89-.11c-3.92,0-7.19,2.29-7,5.16V19c0,2.76-3.11,5-7,5.16L232.76,24c-3.92-.11-7-2.4-7-5.15V15.14c.17-2.76-3.1-5.16-7-5.16H208.59l-25.3-.12c-12.58,0-22.86,7.11-22.86,15.94L159,282.4c0,8.83,10.12,16.05,22.69,16.05l149.06.46c12.58,0,22.86-7.11,22.86-15.94L355,26.37C354.88,17.66,344.75,10.44,332.18,10.32Z" style="fill: #fefbf5"/>
      <path d="M317.48,50.74v-13c0-3.79-2.73-6.21-6.22-5.61l-98,18.65Z" style="fill: #6b3a2c"/>
      <path d="M192.82,254.25a6.79,6.79,0,0,1-6.82-6.82v5.15c0,3.79,2.73,6.22,6.22,5.61L213,254.25Z" style="fill: #6b3a2c"/>
      <path d="M322.18,54.84H192.82A6.79,6.79,0,0,0,186,61.66V251.52a6.8,6.8,0,0,0,6.82,6.83H322.18a6.8,6.8,0,0,0,6.82-6.83V61.66A6.79,6.79,0,0,0,322.18,54.84Zm-57,46.55V86.53h12.58a2.81,2.81,0,0,1,1.82.76,2.5,2.5,0,0,1,.76,1.82V112h-5V91.69h-5.16V112h-5ZM244.84,109V86.53H260v5H249.84v5.15h7.58v5h-7.58v5.15H260v5H244.84Zm-30.48-5.62V89.11a2.78,2.78,0,0,1,.76-1.82,2.52,2.52,0,0,1,1.81-.76h7.59a2.59,2.59,0,0,1,2.58,2.58,2.82,2.82,0,0,1,.75-1.82,2.54,2.54,0,0,1,1.82-.76h7.59a2.8,2.8,0,0,1,1.81.76,2.5,2.5,0,0,1,.76,1.82V112h-5V91.69h-5.16V112h-5V91.69h-5.16V112h-5C214.36,110,214.36,107.16,214.36,103.36Zm86.28,119.05a4.08,4.08,0,0,1-4.09,4.09H218.3a4.07,4.07,0,0,1-4.09-4.09V126.87a4.07,4.07,0,0,1,4.09-4.09h78.25a4.08,4.08,0,0,1,4.09,4.09Zm0-113a2.6,2.6,0,0,1-2.57,2.58H287.9a2.58,2.58,0,0,1-2.57-2.58V86.53h5v20.32h5.16V86.53h5C300.64,91.69,300.64,99.27,300.64,109.43Z" style="fill: #6b3a2c"/>
      <path d="M250.45,141.12V154H243V141.12a1.82,1.82,0,0,0-3.64,0V154H232V141.12a1.82,1.82,0,0,0-3.64,0v19a6.08,6.08,0,0,0,6.06,6.07h3v39.73a4.1,4.1,0,0,0,8.19,0V166.15h3a6.08,6.08,0,0,0,6.06-6.07v-19a1.85,1.85,0,0,0-1.82-1.82C251.21,139.3,250.45,140.21,250.45,141.12Z" style="fill: #6b3a2c"/>
      <path d="M287,158.11c0-8.34-5.91-18.81-13.19-18.81s-13.19,10.47-13.19,18.81c0,6.67,3.79,9.85,9.1,10.92v37.15a4.09,4.09,0,1,0,8.18,0V169C283.2,168,287,164.78,287,158.11Z" style="fill: #6b3a2c"/>
      <path d="M199.09,168.3H8.6V327.69H199.09Z" style="fill: #f8f0ee"/>
      <path d="M199.08,328.68H8.6a1,1,0,0,1-1-1V168.3a1.05,1.05,0,0,1,.29-.71,1,1,0,0,1,.71-.29H199.08a1,1,0,0,1,.71.29,1,1,0,0,1,.29.71V327.68a1,1,0,0,1-.29.71A1,1,0,0,1,199.08,328.68Zm-189.48-2H198.08V169.3H9.6Z" style="fill: #40231a"/>
      <path d="M3.65,192.33H25.91v34.46a11.13,11.13,0,0,1-22.26,0Z" style="fill: #fd4100"/>
      <path d="M14.78,238.92A12.15,12.15,0,0,1,2.65,226.79V192.33a1.05,1.05,0,0,1,.29-.71,1,1,0,0,1,.71-.29H25.91a1,1,0,0,1,.71.29,1.05,1.05,0,0,1,.29.71v34.46a12.15,12.15,0,0,1-12.13,12.13ZM4.65,193.33v33.46a10.13,10.13,0,0,0,20.26,0V193.33Z" style="fill: #40231a"/>
      <path d="M25.91,192.33H48.17v34.46a11.13,11.13,0,0,1-22.26,0Z" style="fill: #fdc000"/>
      <path d="M37.05,238.92a12.14,12.14,0,0,1-12.14-12.13V192.33a1.05,1.05,0,0,1,.29-.71,1,1,0,0,1,.71-.29H48.18a1,1,0,0,1,.71.29,1.05,1.05,0,0,1,.29.71v34.46a12.15,12.15,0,0,1-12.13,12.13ZM26.91,193.33v33.46a10.14,10.14,0,0,0,20.27,0V193.33Z" style="fill: #40231a"/>
      <path d="M48.18,192.33H70.44v34.46a11.13,11.13,0,0,1-22.26,0Z" style="fill: #fd4100"/>
      <path d="M59.31,238.92a12.15,12.15,0,0,1-12.13-12.13V192.33a1.05,1.05,0,0,1,.29-.71,1,1,0,0,1,.71-.29H70.44a1,1,0,0,1,.71.29,1.05,1.05,0,0,1,.29.71v34.46a12.15,12.15,0,0,1-12.13,12.13ZM49.18,193.33v33.46a10.13,10.13,0,0,0,20.26,0V193.33Z" style="fill: #40231a"/>
      <path d="M70.44,192.33H92.7v34.46a11.13,11.13,0,0,1-22.26,0Z" style="fill: #fdc000"/>
      <path d="M81.58,238.92a12.14,12.14,0,0,1-12.14-12.13V192.33a1.05,1.05,0,0,1,.29-.71,1,1,0,0,1,.71-.29H92.71a1,1,0,0,1,.71.29,1.05,1.05,0,0,1,.29.71v34.46a12.15,12.15,0,0,1-12.13,12.13ZM71.44,193.33v33.46a10.14,10.14,0,0,0,20.27,0V193.33Z" style="fill: #40231a"/>
      <path d="M92.71,192.33H115v34.46a11.13,11.13,0,0,1-22.26,0Z" style="fill: #fd4100"/>
      <path d="M103.84,238.92a12.15,12.15,0,0,1-12.13-12.13V192.33a1.05,1.05,0,0,1,.29-.71,1,1,0,0,1,.71-.29H115a1,1,0,0,1,.71.29,1.05,1.05,0,0,1,.29.71v34.46a12.15,12.15,0,0,1-12.13,12.13ZM93.71,193.33v33.46a10.13,10.13,0,0,0,20.26,0V193.33Z" style="fill: #40231a"/>
      <path d="M115,192.33h22.27v34.46a11.13,11.13,0,0,1-22.26,0V192.33Z" style="fill: #fdc000"/>
      <path d="M126.1,238.92A12.15,12.15,0,0,1,114,226.79V192.33a1.05,1.05,0,0,1,.29-.71,1,1,0,0,1,.71-.29h22.27a1,1,0,0,1,.71.29,1.05,1.05,0,0,1,.29.71v34.46a12.14,12.14,0,0,1-12.14,12.13ZM116,193.33v33.46a10.14,10.14,0,0,0,20.27,0V193.33Z" style="fill: #40231a"/>
      <path d="M137.24,192.33H159.5v34.46a11.13,11.13,0,0,1-22.26,0Z" style="fill: #fd4100"/>
      <path d="M148.37,238.92a12.15,12.15,0,0,1-12.13-12.13V192.33a1.05,1.05,0,0,1,.29-.71,1,1,0,0,1,.71-.29H159.5a1,1,0,0,1,1,1v34.46a12.14,12.14,0,0,1-12.13,12.13Zm-10.13-45.59v33.46a10.13,10.13,0,0,0,20.26,0V193.33Z" style="fill: #40231a"/>
      <path d="M159.5,192.33h22.26v34.46a11.13,11.13,0,0,1-22.26,0Z" style="fill: #fdc000"/>
      <path d="M170.63,238.92a12.15,12.15,0,0,1-12.13-12.13V192.33a1,1,0,0,1,1-1h22.27a1,1,0,0,1,.71.29,1.05,1.05,0,0,1,.29.71v34.46a12.14,12.14,0,0,1-12.14,12.13ZM160.5,193.33v33.46a10.14,10.14,0,0,0,20.27,0V193.33Z" style="fill: #40231a"/>
      <path d="M181.77,192.33H204v34.46a11.13,11.13,0,0,1-22.26,0Z" style="fill: #fd4100"/>
      <path d="M192.9,238.92a12.15,12.15,0,0,1-12.13-12.13V192.33a1.05,1.05,0,0,1,.29-.71,1,1,0,0,1,.71-.29H204a1,1,0,0,1,1,1v34.46a12.15,12.15,0,0,1-12.13,12.13Zm-10.13-45.59v33.46a10.13,10.13,0,0,0,20.26,0V193.33Z" style="fill: #40231a"/>
      <path d="M98.93,187.43a1,1,0,0,1-1-1,1,1,0,0,1,.29-.71l11.11-11.11a1,1,0,0,1,.69-.24,1,1,0,0,1,1,1,1,1,0,0,1-.24.69L99.64,187.13a.87.87,0,0,1-.32.22A1.09,1.09,0,0,1,98.93,187.43Z" style="fill: #40231a"/>
      <path d="M108.09,180.68a3.37,3.37,0,0,1-3.17-2.1,3.36,3.36,0,0,1-.19-2,3.29,3.29,0,0,1,1-1.75l1.7-1.7a1.08,1.08,0,0,1,.72-.31,1.06,1.06,0,0,1,.72.29,1,1,0,0,1,.31.72,1,1,0,0,1-.29.73l-1.7,1.7a1.44,1.44,0,0,0-.31.46,1.38,1.38,0,0,0,0,1.08,1.44,1.44,0,0,0,2.31.46l1.7-1.7a1,1,0,0,1,1.41,1.41l-1.7,1.7a3.43,3.43,0,0,1-1.13.75A3.34,3.34,0,0,1,108.09,180.68Z" style="fill: #40231a"/>
      <path d="M108.59,187.27a1.22,1.22,0,0,1-.38-.07,1,1,0,0,1-.33-.22L96.77,175.85a1.11,1.11,0,0,1-.25-.32,1.12,1.12,0,0,1-.1-.4,1.05,1.05,0,0,1,.07-.4.93.93,0,0,1,.57-.57,1.05,1.05,0,0,1,.4-.07,1.12,1.12,0,0,1,.4.1,1.11,1.11,0,0,1,.32.25l11.11,11.11a1,1,0,0,1,0,1.41,1,1,0,0,1-.32.22A.85.85,0,0,1,108.59,187.27Z" style="fill: #40231a"/>
      <path d="M101.18,178.77c.76-.75.34-2.4-.93-3.67s-2.92-1.69-3.68-.94-.34,2.41.93,3.68S100.42,179.53,101.18,178.77Z" style="fill: #40231a"/>
      <path d="M100.16,180.15a5,5,0,0,1-3.32-1.6c-1.69-1.69-2.1-3.92-.94-5.09s3.4-.75,5.09.93a5.56,5.56,0,0,1,1.45,2.46,2.65,2.65,0,0,1,.07,1.37,2.58,2.58,0,0,1-.62,1.22,2.44,2.44,0,0,1-.79.53A2.53,2.53,0,0,1,100.16,180.15Zm-2.57-5.36a.42.42,0,0,0-.16,0,.53.53,0,0,0-.15.08c-.23.22,0,1.28.93,2.26s2,1.16,2.26.93a.78.78,0,0,0,0-.69,3.59,3.59,0,0,0-1-1.57A3.14,3.14,0,0,0,97.59,174.79Z" style="fill: #40231a"/>
      <path d="M131.67,243.82H76v83.86h55.66Z" style="fill: #40231a"/>
      <path d="M131.67,328.68H76a1,1,0,0,1-.71-.29,1,1,0,0,1-.29-.71V243.85a1.05,1.05,0,0,1,.29-.71,1,1,0,0,1,.71-.29h55.66a1,1,0,0,1,1,1v83.86a1,1,0,0,1-.3.69A1,1,0,0,1,131.67,328.68Zm-54.66-2h53.66V244.85H77Z" style="fill: #40231a"/>
      <path d="M184.75,248H143.84v60.26h40.91Z" style="fill: #fff"/>
      <path d="M184.75,309.25H143.84a1,1,0,0,1-1-1V248a1.05,1.05,0,0,1,.29-.71,1,1,0,0,1,.71-.29h40.91a1,1,0,0,1,1,1v60.26a1,1,0,0,1-.29.71A1.05,1.05,0,0,1,184.75,309.25Zm-39.91-2h38.91V249H144.84Z" style="fill: #40231a"/>
      <path d="M164.3,309.25a1.05,1.05,0,0,1-.71-.29,1,1,0,0,1-.29-.71V297.56a1,1,0,0,1,.29-.71,1.05,1.05,0,0,1,.71-.29,1,1,0,0,1,.71.29,1.05,1.05,0,0,1,.29.71v10.69a1,1,0,0,1-1,1Z" style="fill: #40231a"/>
      <path d="M176.49,298.56H152.1a1.05,1.05,0,0,1-.71-.29,1,1,0,0,1-.29-.71,1,1,0,0,1,1-1h24.39a1,1,0,0,1,.71.29,1.05,1.05,0,0,1,.29.71,1,1,0,0,1-1,1Z" style="fill: #40231a"/>
      <path d="M164.29,257.35l6.45,8.76H157.85Z" style="fill: #fdc000"/>
      <path d="M170.75,267.11H157.84a.93.93,0,0,1-.52-.15.9.9,0,0,1-.37-.4,1,1,0,0,1,.08-1l6.45-8.76a.92.92,0,0,1,.35-.3,1,1,0,0,1,.91,0,.92.92,0,0,1,.35.3l6.45,8.76a1,1,0,0,1,.19.51,1,1,0,0,1-.47.93,1,1,0,0,1-.52.15Zm-10.93-2h9L164.35,259Z" style="fill: #40231a"/>
      <path d="M164.3,258.35a1.05,1.05,0,0,1-.71-.29,1,1,0,0,1-.29-.71V248a1,1,0,0,1,.29-.71,1.05,1.05,0,0,1,.71-.29,1,1,0,0,1,.71.29,1.05,1.05,0,0,1,.29.71v9.36a1.05,1.05,0,0,1-.29.71A1,1,0,0,1,164.3,258.35Z" style="fill: #40231a"/>
      <path d="M63.84,248H22.93v60.26H63.84Z" style="fill: #fff"/>
      <path d="M63.84,309.25H22.93a1.05,1.05,0,0,1-.71-.29,1,1,0,0,1-.29-.71V248a1,1,0,0,1,1-1H63.84a1,1,0,0,1,.71.29,1.05,1.05,0,0,1,.29.71v60.26a1,1,0,0,1-1,1Zm-39.91-2H62.84V249H23.93Z" style="fill: #40231a"/>
      <path d="M43.38,309.25a1,1,0,0,1-1-1V297.56a1.05,1.05,0,0,1,.29-.71,1,1,0,0,1,1.42,0,1.05,1.05,0,0,1,.29.71v10.69a1,1,0,0,1-1,1Z" style="fill: #40231a"/>
      <path d="M55.58,298.56H31.19a1,1,0,0,1-1-1,1.05,1.05,0,0,1,.29-.71,1,1,0,0,1,.71-.29H55.58a1,1,0,0,1,.71.29,1.05,1.05,0,0,1,.29.71,1,1,0,0,1-1,1Z" style="fill: #40231a"/>
      <path d="M43.38,257.35l6.45,8.76H36.93Z" style="fill: #fdc000"/>
      <path d="M49.84,267.11H36.94a1,1,0,0,1-.52-.15A1,1,0,0,1,36,266a1,1,0,0,1,.19-.51l6.45-8.76a.92.92,0,0,1,.35-.3,1,1,0,0,1,.9,0,1,1,0,0,1,.36.3l6.45,8.76a1.06,1.06,0,0,1,.19.51,1,1,0,0,1-.11.53.9.9,0,0,1-.37.4A1,1,0,0,1,49.84,267.11Zm-10.92-2h9L43.44,259Z" style="fill: #40231a"/>
      <path d="M43.38,258.35a1,1,0,0,1-.71-.29,1.05,1.05,0,0,1-.29-.71V248a1.05,1.05,0,0,1,.29-.71,1,1,0,0,1,1.42,0,1.05,1.05,0,0,1,.29.71v9.36a1.05,1.05,0,0,1-.29.71A1,1,0,0,1,43.38,258.35Z" style="fill: #40231a"/>
      <path d="M84.93,286a4.11,4.11,0,1,0-4.11-4.11A4.11,4.11,0,0,0,84.93,286Z" style="fill: #fff"/>
      <path d="M84.93,287a5.11,5.11,0,0,1-5-6.11,5.21,5.21,0,0,1,1.4-2.62A5.11,5.11,0,0,1,84,276.91a5.06,5.06,0,0,1,3,.29,5.1,5.1,0,0,1,3.15,4.72,5.08,5.08,0,0,1-.39,2,5.07,5.07,0,0,1-2.77,2.76A5.08,5.08,0,0,1,84.93,287Zm0-8.22a3.11,3.11,0,0,0-.59,6.16,3.13,3.13,0,0,0,3.19-1.32,3.09,3.09,0,0,0-2.6-4.8Z" style="fill: #40231a"/>
      <path d="M203.68,327.68H4a3,3,0,1,0,0,6H203.68a3,3,0,0,0,0-6Z" style="fill: #f8f0ee"/>
      <path d="M203.67,334.7H4a4,4,0,1,1,0-8H203.67a4,4,0,1,1,0,8ZM4,328.7a2,2,0,0,0,0,4H203.67a2,2,0,0,0,0-4Z" style="fill: #40231a"/>
      <path d="M201.54,158H6.15a5.15,5.15,0,0,0,0,10.3H201.54a5.15,5.15,0,0,0,0-10.3Z" style="fill: #f8f0ee"/>
      <path d="M201.53,169.3H6.15a6.15,6.15,0,1,1,0-12.3H201.53a6.15,6.15,0,1,1,0,12.3ZM6.15,159a4.15,4.15,0,0,0,0,8.3H201.53a4.15,4.15,0,0,0,0-8.3Z" style="fill: #40231a"/>
      <path d="M82.63,181.72H24.32a1,1,0,0,1-.71-.29,1,1,0,0,1-.29-.71,1.05,1.05,0,0,1,.29-.71,1,1,0,0,1,.71-.29H82.63a1,1,0,0,1,1,1,1,1,0,0,1-.29.71A1,1,0,0,1,82.63,181.72Z" style="fill: #40231a"/>
      <path d="M183.36,181.72H125.05a1,1,0,0,1-.71-.29,1,1,0,0,1-.29-.71,1,1,0,0,1,.29-.71,1.05,1.05,0,0,1,.71-.29h58.31a1,1,0,0,1,.71.29,1.05,1.05,0,0,1,.29.71,1,1,0,0,1-.29.71A1,1,0,0,1,183.36,181.72Z" style="fill: #40231a"/>
      <path d="M43.38,284a1,1,0,0,1-.68-.27,1,1,0,0,1-.22-.32,1.09,1.09,0,0,1-.08-.39,1,1,0,0,1,.08-.38,1,1,0,0,1,.22-.33l13.1-14a1,1,0,0,1,.7-.31,1,1,0,0,1,.72.26,1,1,0,0,1,.31.7,1,1,0,0,1-.27.72l-13.11,14a.92.92,0,0,1-.35.24A1,1,0,0,1,43.38,284Z" style="fill: #ecfaff"/>
      <path d="M29.45,285.75a1,1,0,0,1-.75-1.66L37.54,274a1,1,0,0,1,.31-.26,1,1,0,0,1,.38-.11.9.9,0,0,1,.4.05.94.94,0,0,1,.35.2,1,1,0,0,1,.24.32,1,1,0,0,1,.1.39,1.07,1.07,0,0,1-.07.39.92.92,0,0,1-.21.34L30.21,285.4a1,1,0,0,1-.34.26A1,1,0,0,1,29.45,285.75Z" style="fill: #ecfaff"/>
      <path d="M152.1,285.39a1,1,0,0,1-.56-.17,1.1,1.1,0,0,1-.37-.46,1,1,0,0,1,0-.59,1,1,0,0,1,.29-.51l12.2-11.31a1,1,0,0,1,.72-.27,1,1,0,0,1,.69.32,1.15,1.15,0,0,1,.21.33,1.32,1.32,0,0,1,.06.39,1,1,0,0,1-.1.38.9.9,0,0,1-.23.32l-12.19,11.31A1,1,0,0,1,152.1,285.39Z" style="fill: #ecfaff"/>
      <path d="M166.05,290.69a.88.88,0,0,1-.39-.08.91.91,0,0,1-.33-.22,1,1,0,0,1-.22-.32,1.09,1.09,0,0,1-.08-.39,1,1,0,0,1,.08-.38,1,1,0,0,1,.22-.33c6.42-6.17,14.22-13.61,14.92-14a1,1,0,0,1,.72,0,1,1,0,0,1,.55.46,1,1,0,0,1,.09.72,1,1,0,0,1-.41.59c-.87.63-9.33,8.68-14.48,13.64A1,1,0,0,1,166.05,290.69Z" style="fill: #ecfaff"/>
    </g>
  </g>
</svg>
