<svg xmlns="http://www.w3.org/2000/svg" viewBox="0 0 556 328.05">
  <g id="Camada_2" data-name="Camada 2">
    <g id="Camada_1-2" data-name="Camada 1">
      <g>
        <rect width="556" height="328" style="fill: none"/>
        <g>
          <path d="M69.23,220.83c.13,0,.25-14.22.25-31.85s-.12-31.85-.25-31.85S69,171.35,69,189,69,220.83,69.23,220.83Z" style="fill: #eedad5"/>
          <path d="M128.48,326.84c-.13,0-.25-23.46-.25-52.52s.12-52.52.25-52.52.24,23.47.24,52.52S128.6,326.84,128.48,326.84Z" style="fill: #fff7df"/>
          <path d="M151.06,303.62H140.62v11.79h10.44Z" style="fill: #fafafa"/>
          <path d="M269.42,36.41a11.26,11.26,0,0,1-4,0A7.38,7.38,0,0,1,269.42,36.41Z" style="fill: #eedad5"/>
          <path d="M277.31,36.41a11.26,11.26,0,0,1-4,0A7.38,7.38,0,0,1,277.31,36.41Z" style="fill: #eedad5"/>
          <path d="M285.32,36.41a11.2,11.2,0,0,1-4,0A7.35,7.35,0,0,1,285.32,36.41Z" style="fill: #eedad5"/>
          <path d="M293.21,36.41a11.2,11.2,0,0,1-4,0A7.35,7.35,0,0,1,293.21,36.41Z" style="fill: #eedad5"/>
          <path d="M301.1,36.41a11.2,11.2,0,0,1-4,0A7.34,7.34,0,0,1,301.1,36.41Z" style="fill: #eedad5"/>
          <path d="M309.11,36.41a11.2,11.2,0,0,1-4,0A7.35,7.35,0,0,1,309.11,36.41Z" style="fill: #eedad5"/>
          <path d="M317,36.41a11.26,11.26,0,0,1-4,0A7.38,7.38,0,0,1,317,36.41Z" style="fill: #eedad5"/>
          <path d="M325,36.41a11.26,11.26,0,0,1-4,0A7.38,7.38,0,0,1,325,36.41Z" style="fill: #eedad5"/>
          <path d="M332.91,36.41a11.26,11.26,0,0,1-4,0A7.38,7.38,0,0,1,332.91,36.41Z" style="fill: #eedad5"/>
          <path d="M340.92,36.41a11.2,11.2,0,0,1-4,0A7.35,7.35,0,0,1,340.92,36.41Z" style="fill: #eedad5"/>
          <path d="M348.81,36.41a11.2,11.2,0,0,1-4,0A7.35,7.35,0,0,1,348.81,36.41Z" style="fill: #eedad5"/>
          <path d="M356.7,36.41a11.2,11.2,0,0,1-4,0A7.34,7.34,0,0,1,356.7,36.41Z" style="fill: #eedad5"/>
          <path d="M364.71,36.41a11.2,11.2,0,0,1-4,0A7.35,7.35,0,0,1,364.71,36.41Z" style="fill: #eedad5"/>
          <path d="M372.61,36.41a11.26,11.26,0,0,1-4,0A7.38,7.38,0,0,1,372.61,36.41Z" style="fill: #eedad5"/>
          <path d="M380.62,36.41a11.26,11.26,0,0,1-4,0A7.38,7.38,0,0,1,380.62,36.41Z" style="fill: #eedad5"/>
          <path d="M388.51,36.41a11.26,11.26,0,0,1-4,0A7.38,7.38,0,0,1,388.51,36.41Z" style="fill: #eedad5"/>
          <path d="M396.4,36.41a11.26,11.26,0,0,1-4,0A7.37,7.37,0,0,1,396.4,36.41Z" style="fill: #eedad5"/>
          <path d="M404.41,36.41a11.2,11.2,0,0,1-4,0A7.35,7.35,0,0,1,404.41,36.41Z" style="fill: #eedad5"/>
          <path d="M412.3,36.41a11.2,11.2,0,0,1-4,0A7.34,7.34,0,0,1,412.3,36.41Z" style="fill: #eedad5"/>
          <path d="M420.32,36.41a11.26,11.26,0,0,1-4,0A7.38,7.38,0,0,1,420.32,36.41Z" style="fill: #eedad5"/>
          <path d="M428.21,36.41a11.26,11.26,0,0,1-4,0A7.38,7.38,0,0,1,428.21,36.41Z" style="fill: #eedad5"/>
          <path d="M436.22,36.41a11.26,11.26,0,0,1-4,0A7.38,7.38,0,0,1,436.22,36.41Z" style="fill: #eedad5"/>
          <path d="M444.11,36.41a11.26,11.26,0,0,1-4,0A7.38,7.38,0,0,1,444.11,36.41Z" style="fill: #eedad5"/>
          <path d="M446.17,42.24a11.26,11.26,0,0,1,0-4A10.81,10.81,0,0,1,446.17,42.24Z" style="fill: #eedad5"/>
          <path d="M446.17,50.27a11.31,11.31,0,0,1,0-4A10.87,10.87,0,0,1,446.17,50.27Z" style="fill: #eedad5"/>
          <path d="M446.17,58.17a11.26,11.26,0,0,1,0-4A10.81,10.81,0,0,1,446.17,58.17Z" style="fill: #eedad5"/>
          <path d="M446.17,66.07a11.26,11.26,0,0,1,0-4A10.79,10.79,0,0,1,446.17,66.07Z" style="fill: #eedad5"/>
          <path d="M446.17,74.09a11.26,11.26,0,0,1,0-4A10.81,10.81,0,0,1,446.17,74.09Z" style="fill: #eedad5"/>
          <path d="M447.75,80.54c0,.12-.61.12-1.58.24h-.24v-.61a3.49,3.49,0,0,1,.24-1.94,5.19,5.19,0,0,1,.25,1.94v.49l-.25-.24A2.32,2.32,0,0,1,447.75,80.54Z" style="fill: #eedad5"/>
          <path d="M455.64,80.54a11.2,11.2,0,0,1-4,0A7.35,7.35,0,0,1,455.64,80.54Z" style="fill: #eedad5"/>
          <path d="M463.53,80.54a11.2,11.2,0,0,1-4,0A7.34,7.34,0,0,1,463.53,80.54Z" style="fill: #eedad5"/>
          <path d="M471.55,80.54a11.26,11.26,0,0,1-4,0A7.38,7.38,0,0,1,471.55,80.54Z" style="fill: #eedad5"/>
          <path d="M479.44,80.54a11.26,11.26,0,0,1-4,0A7.38,7.38,0,0,1,479.44,80.54Z" style="fill: #eedad5"/>
          <path d="M487.45,80.54a11.26,11.26,0,0,1-4,0A7.38,7.38,0,0,1,487.45,80.54Z" style="fill: #eedad5"/>
          <path d="M495.34,80.54a11.26,11.26,0,0,1-4,0A7.38,7.38,0,0,1,495.34,80.54Z" style="fill: #eedad5"/>
          <path d="M503.23,80.54a11.26,11.26,0,0,1-4,0A7.37,7.37,0,0,1,503.23,80.54Z" style="fill: #eedad5"/>
          <path d="M511.24,80.54a11.2,11.2,0,0,1-4,0A7.35,7.35,0,0,1,511.24,80.54Z" style="fill: #eedad5"/>
          <path d="M514.28,85.4a10.81,10.81,0,0,1,0-4A7.58,7.58,0,0,1,514.28,85.4Z" style="fill: #eedad5"/>
          <path d="M514.28,93.3a10.81,10.81,0,0,1,0-4A7.58,7.58,0,0,1,514.28,93.3Z" style="fill: #eedad5"/>
          <path d="M514.28,101.2a10.81,10.81,0,0,1,0-4A7.58,7.58,0,0,1,514.28,101.2Z" style="fill: #eedad5"/>
          <path d="M514.28,109.23a10.81,10.81,0,0,1,0-4A7.58,7.58,0,0,1,514.28,109.23Z" style="fill: #eedad5"/>
          <path d="M514.28,117.13a10.81,10.81,0,0,1,0-4A7.58,7.58,0,0,1,514.28,117.13Z" style="fill: #eedad5"/>
          <path d="M514.28,125.15a10.81,10.81,0,0,1,0-4A7.58,7.58,0,0,1,514.28,125.15Z" style="fill: #eedad5"/>
          <path d="M514.28,133.06a10.87,10.87,0,0,1,0-4A7.62,7.62,0,0,1,514.28,133.06Z" style="fill: #eedad5"/>
          <path d="M514.28,141.08a10.81,10.81,0,0,1,0-4A7.58,7.58,0,0,1,514.28,141.08Z" style="fill: #eedad5"/>
          <path d="M514.28,149a10.81,10.81,0,0,1,0-4A7.58,7.58,0,0,1,514.28,149Z" style="fill: #eedad5"/>
          <path d="M514.28,156.88a10.81,10.81,0,0,1,0-4A7.58,7.58,0,0,1,514.28,156.88Z" style="fill: #eedad5"/>
          <path d="M514.28,164.91a10.81,10.81,0,0,1,0-4A7.58,7.58,0,0,1,514.28,164.91Z" style="fill: #eedad5"/>
          <path d="M311.06,49.9s-6.19-3.4-12.26,11.19a189.16,189.16,0,0,0-8.14,22.85s-1.7,3-3.88,1.34-5.34-7-8.74-5.72-4.37,5.35-3.16,11.19,3.16,18.6,3.4,19.69-.36,2.92-2.06,2-11.54-10.46-15.79-5.47,1.58,20.54,2.19,22.25.36,2.43-.49,3-3.88-3-6.79-5.6-6.8-5-9-1.94-2.06,15.07,10.93,33.67l6.55,8.27,10.44-1.46c22.1-4.38,30.6-12.89,31.2-16.65s-3.88-4.5-7.77-4.62-8.49.24-8.74-.73.12-1.7,1.7-2.44,16.63-8,17.12-14.46-13.23-6.57-15-7-1.1-2.07-.12-2.8,11.28-8.51,16-11.91,7-6.93,5.46-10.22-7.52-1.7-10.2-1.94-1.82-3.65-1.82-3.65a189.39,189.39,0,0,0,10.08-22.12C318,51.85,310.94,50,310.94,50" style="fill: #faedd7"/>
          <path d="M264.44,164.42c4.25-10.82,10.32-25.65,17.12-42.06s12.74-31.25,17.11-41.94c2.19-5.35,3.89-9.73,5.1-12.77l1.46-3.4a2.56,2.56,0,0,1,.37-.85.42.42,0,0,1,.12-.25.46.46,0,0,1-.12.37,4.66,4.66,0,0,0-.37.85c-.36.85-.73,1.94-1.34,3.52-1.21,3-2.91,7.42-5,12.77-4.25,10.82-10.32,25.65-17,42.06S269.17,154,264.8,164.66" style="fill: #fff7df"/>
          <path d="M282.41,87.1l.36.73a10.53,10.53,0,0,1,.73,2c.61,1.58,1.34,3.89,2.18,6.44s1.46,4.74,2.07,6.44l.61,2c.12.24.12.49.24.73-.12-.24-.24-.49-.37-.73a11.4,11.4,0,0,1-.72-2c-.61-1.58-1.34-3.89-2.19-6.44l-2.06-6.44c-.24-.85-.49-1.46-.61-2A1.7,1.7,0,0,1,282.41,87.1Z" style="fill: #fff7df"/>
          <path d="M289.45,105.46c0-.12,4.61-1.95,10.32-4s10.44-3.77,10.44-3.77-4.61,1.94-10.32,4S289.57,105.58,289.45,105.46Z" style="fill: #fff7df"/>
          <path d="M278,130.14a1.8,1.8,0,0,1,.85-.12l2.06-.12c1.82-.13,4.25-.37,6.92-.61s5.1-.73,6.92-1l2.06-.37a1.84,1.84,0,0,1,.85-.12c-.24.12-.48.12-.72.24-.49.12-1.22.25-2.07.49-1.7.36-4.13.73-6.92,1.09s-5.1.49-6.92.61H279C278.52,130.26,278.28,130.14,278,130.14Z" style="fill: #fff7df"/>
          <path d="M268,114.94a2.71,2.71,0,0,1,.49.61c.24.36.6.85,1.09,1.58,1,1.34,2.31,3.16,3.64,5.23s2.67,4,3.64,5.35c.49.73.85,1.21,1.1,1.58s.24.36.36.61a2.94,2.94,0,0,1-.48-.61c-.25-.37-.61-.85-1.1-1.58-1-1.34-2.3-3.16-3.64-5.23s-2.67-4-3.64-5.35c-.49-.73-.85-1.22-1.09-1.58C268.08,115.43,268.08,115.18,268,114.94Z" style="fill: #fff7df"/>
          <path d="M255.09,135.49c.25.24.37.48.61.73.36.48.85,1.21,1.46,2.06,1.21,1.71,2.91,4.14,4.73,6.69s3.52,5,4.62,6.81c.6.85,1,1.58,1.33,2.07a5.67,5.67,0,0,1,.49.85c-.25-.25-.37-.49-.61-.73l-1.46-2.07c-1.21-1.7-2.91-4.13-4.73-6.69s-3.52-5-4.62-6.8l-1.33-2.07A8.08,8.08,0,0,1,255.09,135.49Z" style="fill: #fff7df"/>
          <path d="M268.2,154a2.72,2.72,0,0,1,1-.12l2.68-.25c2.18-.24,5.34-.61,8.74-1.09s6.43-1,8.74-1.46l2.67-.49a2.7,2.7,0,0,1,1-.12,2.88,2.88,0,0,1-1,.24c-.61.13-1.46.37-2.67.61-2.19.49-5.34,1-8.74,1.46s-6.56.85-8.74,1c-1.1.13-2.07.13-2.68.25A1.35,1.35,0,0,1,268.2,154Z" style="fill: #fff7df"/>
          <path d="M542.2,184.36a27.86,27.86,0,1,0-51.84,14.1l.12.12c1.1,1.83,2.43,3,3.77,5l16.14,21.52a5,5,0,0,0,7,1,3.58,3.58,0,0,0,1-1l15.91-21.16a55.13,55.13,0,0,0,4-5.35v-.12A27.38,27.38,0,0,0,542.2,184.36Zm-27.92,12.16a12.28,12.28,0,1,1,12.26-12.28A12.23,12.23,0,0,1,514.28,196.52Z" style="fill: #faedd7"/>
          <path d="M410.48,60.11V92.94a1.34,1.34,0,0,0,1.34,1.33h68.83A1.41,1.41,0,0,0,482,93.06l-.12-12a2.32,2.32,0,0,0-.24-.85l-9.83-13.25a1.12,1.12,0,0,0-1-.49l-11.42-.12A1.24,1.24,0,0,1,458.19,65V60a1.35,1.35,0,0,0-1.33-1.34H411.94A1.57,1.57,0,0,0,410.48,60.11Z" style="fill: #faedd7"/>
          <path d="M461.1,69.23V79.81a.79.79,0,0,0,.73.73L477,80.29a.78.78,0,0,0,.73-.72.43.43,0,0,0-.13-.37l-7.16-10.45a.65.65,0,0,0-.6-.37l-8.14.24C461.35,68.5,461.1,68.87,461.1,69.23Z" style="fill: #eedad5"/>
          <path d="M483.32,95.25H409.15v2.31h74.17Z" style="fill: #faedd7"/>
          <path d="M426.26,103.39A7.3,7.3,0,1,0,419,96.1,7.29,7.29,0,0,0,426.26,103.39Z" style="fill: #eedad5"/>
          <path d="M430.63,96.1a4.37,4.37,0,1,1-4.37-4.38A4.35,4.35,0,0,1,430.63,96.1Z" style="fill: #b96c55"/>
          <path d="M457.83,94.27c-.25,0-.37-7.9-.37-17.74s.12-17.75.37-17.75.36,7.9.36,17.75S458.07,94.27,457.83,94.27Z" style="fill: #eedad5"/>
          <path d="M466.2,103.39a7.3,7.3,0,1,0-7.28-7.29A7.29,7.29,0,0,0,466.2,103.39Z" style="fill: #eedad5"/>
          <path d="M470.57,96.1a4.37,4.37,0,1,1-4.37-4.38A4.44,4.44,0,0,1,470.57,96.1Z" style="fill: #b96c55"/>
          <path d="M466.2,82.6a5.22,5.22,0,0,1-2.43.37c-1.33,0-2.3-.12-2.3-.37s1.09-.36,2.3-.36S466.2,82.36,466.2,82.6Z" style="fill: #eedad5"/>
          <path d="M556,327.66c0,.12-124.43.24-278,.24s-278-.12-278-.24,124.43-.24,278-.24S556,327.54,556,327.66Z" style="fill: #40231a"/>
          <path d="M111.07,324.16c10.68-7.41,13.23-21.27,12.75-33.8-.13-2.06.12-4.25-.85-6.07s-3.28-3-5.1-2.19c-1.58.73-2.19,2.55-3,4a11.85,11.85,0,0,1-4.85,4.62,4.44,4.44,0,0,1-4.25.36c-1.82-1-1.94-3.52-1.94-5.59,0-3.89.12-7.66.12-11.55a20.26,20.26,0,0,0-.61-6.08,6.57,6.57,0,0,0-4-4.37,4,4,0,0,0-4.85,2.55,18.14,18.14,0,0,0-.12,2.55A2.25,2.25,0,0,1,93,270.67a2.52,2.52,0,0,1-2.3-1,26.73,26.73,0,0,1-4.86-7.42,34.74,34.74,0,0,0-4.61-7.66,11.1,11.1,0,0,0-7.53-4.25,6.72,6.72,0,0,0-6.92,4.5c-.73,2.91,1,5.83,2.79,8.26A48.49,48.49,0,0,0,79,272.37a3.62,3.62,0,0,1,1.58,1.7c.48,1.34-.85,2.8-2.19,3.16a20.85,20.85,0,0,1-4.85.49,4.66,4.66,0,0,0-4,2.43c-.85,2.07.85,4.38,2.67,5.84a40.13,40.13,0,0,0,11.66,6.81A14.67,14.67,0,0,1,88.25,295a3.36,3.36,0,0,1,1.09,4.62,3.41,3.41,0,0,1-4.13,1.34c-1.58-.49-3-1.09-4.49-1.7-2.79-1.1-6.55-.85-8.38,1.58a7,7,0,0,0-.72,5.83,13.84,13.84,0,0,0,3.15,5.11,39.66,39.66,0,0,0,16.88,12C98.32,325.74,104.51,326.47,111.07,324.16Z" style="fill: #ff703e"/>
          <path d="M110.34,327.69c-.48-5-.6-5-2.43-11.31a185.77,185.77,0,0,0-7.28-19.94l-2.19-5.1c-.72-1.7-1.45-3.41-2.18-5-1.58-3-3.28-6-5.1-8.87s-3.52-5.35-5.22-7.66-3.28-4.5-4.85-6.44a86,86,0,0,0-7.9-8.51,25.15,25.15,0,0,0-2.42-2.07l-.61-.49a.37.37,0,0,0-.24-.12l.24.24.61.61c.48.49,1.33,1.22,2.3,2.19A86,86,0,0,1,81,263.74c1.58,1.95,3.16,4.13,4.74,6.44s3.4,4.87,5.22,7.66,3.52,5.84,5.1,8.88c.85,1.58,1.45,3.28,2.18,5l2.19,5.11a194.84,194.84,0,0,1,7.28,19.94c1.82,6.32,2.07,6.32,2.55,11.3" style="fill: #40231a"/>
          <path d="M96,286.23c.12-.24.12-.61.24-.85.12-.61.24-1.46.36-2.43.25-2.07.61-4.86,1-8s.72-5.95,1-8c.12-1,.24-1.82.36-2.43a2.09,2.09,0,0,0,.12-.85,2.27,2.27,0,0,0-.24.85,21.17,21.17,0,0,0-.49,2.43c-.36,2.07-.85,4.86-1.09,8s-.61,6-.85,8a23.36,23.36,0,0,0-.24,2.43A1.82,1.82,0,0,0,96,286.23Z" style="fill: #40231a"/>
          <path d="M69.55,281.13a3.41,3.41,0,0,0,1.09.12c.73.12,1.7.12,2.92.24,2.43.24,5.83.85,9.47,1.46a77,77,0,0,1,9.34,2.19c1.22.36,2.19.6,2.8.85a3.56,3.56,0,0,0,1.09.24c-.36-.12-.61-.24-1-.36A15.08,15.08,0,0,0,92.5,285c-2.43-.73-5.71-1.59-9.35-2.31a81.66,81.66,0,0,0-9.59-1.34,28.09,28.09,0,0,0-2.92-.12A4.2,4.2,0,0,0,69.55,281.13Z" style="fill: #40231a"/>
          <path d="M107.55,315.77c.12-.12.12-.24.24-.36a7.35,7.35,0,0,1,.49-1c.36-.86,1-2.07,1.58-3.53,1.33-3,2.91-7.29,4.73-12s3.4-9,4.61-12l1.46-3.65a6.86,6.86,0,0,1,.37-1,.93.93,0,0,0,.12-.36.44.44,0,0,0-.12.36l-.49,1c-.36.85-1,2.07-1.58,3.65-1.33,3-2.91,7.29-4.73,12s-3.4,9-4.62,12c-.6,1.46-1.09,2.67-1.45,3.65a8.35,8.35,0,0,1-.37,1C107.55,315.53,107.55,315.65,107.55,315.77Z" style="fill: #40231a"/>
          <path d="M72.22,304.35c.12,0,.25.12.37.12l1,.36,3.76,1.22c3.16,1.09,7.53,2.55,12.38,4.25s9.23,3.16,12.51,4.14c1.58.48,2.91.85,3.76,1.09l1.09.24a.45.45,0,0,1,.37.12c-.12,0-.24-.12-.37-.12l-1-.36-3.76-1.22c-3.16-1.09-7.53-2.55-12.38-4.25s-9.23-3.16-12.51-4.14c-1.57-.48-2.91-.85-3.76-1.09l-1.09-.24C72.59,304.35,72.34,304.35,72.22,304.35Z" style="fill: #40231a"/>
          <path d="M240,327.64H129.51A25,25,0,0,1,105,302.84L106.2,24.07A24.09,24.09,0,0,1,130.48,0L241.56.49a24.09,24.09,0,0,1,24,24.31l-1.22,278.77A24.42,24.42,0,0,1,240,327.64Z" style="fill: #40231a"/>
          <path d="M241.2,10.94l-21.49-.12a5.25,5.25,0,0,0-5.22,5.47v3.89a5.48,5.48,0,0,1-5.22,5.47l-42-.24a5.47,5.47,0,0,1-5.22-5.47V16.05a5.32,5.32,0,0,0-5.22-5.47H149.3l-18.82-.12a17,17,0,0,0-17,16.89l-1.1,272.08a17,17,0,0,0,16.88,17l110.83.49a17,17,0,0,0,17-16.9L258.19,28A17.3,17.3,0,0,0,241.2,10.94Z" style="fill: #fefbf5"/>
          <path d="M194.22,265.64c-.12,3.28-.25,6.32-.37,8.87h15.91l-1.95-9.85Z" style="fill: #fefbf5"/>
          <path d="M129.51,269.65l.12,4.86h62.64c.13-2.68.25-5.71.37-8.87Z" style="fill: #fefbf5"/>
          <path d="M208.66,264.66l1.94,9.85H240l-.36-11.79Z" style="fill: #fefbf5"/>
          <path d="M195.79,127l5.59-32.21-14.57-1.1V127Z" style="fill: #fefbf5"/>
          <path d="M128.18,251.78,112.39,258v11.18l16.27-1.09Z" style="fill: #fefbf5"/>
          <path d="M128.18,249.34l-.85-30V208.74l-14.69,1.58-.25,45.22Z" style="fill: #fefbf5"/>
          <path d="M127.21,185l-14.57-1.94-.12,24.68,14.56-1.58V185Z" style="fill: #fefbf5"/>
          <path d="M235.37,209.1l-.61,8.64-17.11,1.82,1.33,6.81,19.42-1.46-.24-9.73,1.58-6.44Z" style="fill: #fefbf5"/>
          <path d="M204.54,227.46l13.71-1.09-3-15.32-11.9,1.21Z" style="fill: #fefbf5"/>
          <path d="M204.66,229l1,12.77,1.82,17.5.73,3.77,31.2-1.94-1.1-34.65Z" style="fill: #fefbf5"/>
          <path d="M150.88,169l1.21,2.06-24,14.1v33.31l25.38-1.82,49-5-1.82-21.89-46.74-6.07.37-2.44,46.25,6.08-3-37-45.76,4.38-.12-1.58,45.76-4.38-1.58-19.32H151.73L113,136.53l-.24,44.25,14.69,1.94Zm-20.4,46.31s.12-27.47,0-28.56l19.67-10.46,2.55,37.57Z" style="fill: #fefbf5"/>
          <path d="M233.79,209.35,216,211.17l1.33,6.93,15.9-1.7Z" style="fill: #fefbf5"/>
          <path d="M194.46,259.68c0,1.46-.12,2.92-.12,4.25l13.23-.85-.73-3.4Z" style="fill: #fefbf5"/>
          <path d="M165.93,127.17l2.31-10.58h17.84V93.85l-55.6-4.13v21.4L113.12,115,113,134.22l38.48-7Z" style="fill: #fefbf5"/>
          <path d="M203,63.83l-.49-1.95,21.25-8.39L209.88,25.77c-.25,0-.49.13-.85.13l-23.43-.13.6,38.91Z" style="fill: #fefbf5"/>
          <path d="M235.13,48.87V10.94H219.59a5.25,5.25,0,0,0-5.22,5.47V20.3a5.52,5.52,0,0,1-2.31,4.5L225.9,52.64Z" style="fill: #fefbf5"/>
          <path d="M155.37,50.45l-1.82-39.87H149.3l-16.75-.12L125.38,46.2Zm-3.88-35.86.6,32.46-22.33-3.28,4.85-29.3h16.88Z" style="fill: #fefbf5"/>
          <path d="M156.1,50.57v.37c0,3.16.12,8.75.12,14.71l29.26-1.22-.61-38.9-17.72-.12a5.47,5.47,0,0,1-5.22-5.47V16.05a5.32,5.32,0,0,0-5.22-5.47h-2.43Z" style="fill: #fefbf5"/>
          <path d="M123,45.83l7-35.37a16.87,16.87,0,0,0-16.63,16.89L113.24,45l.13-.48Z" style="fill: #fefbf5"/>
          <path d="M128.05,89.48l-14.93-1.1-.12,24.2,14.93-3.41V89.48Z" style="fill: #fefbf5"/>
          <path d="M122.83,46.68l-9.46-1.33-.13,39.14,2.07.12Z" style="fill: #fefbf5"/>
          <path d="M152.82,248.86l.24-31.37-25,1.83.85,30.75Z" style="fill: #fefbf5"/>
          <path d="M157.43,241.56l35.45,17c.49-11.18.85-21.51.85-22.12h.85l.37-.73c.48.24.48.24.24,7.78-.12,4.25-.37,9.85-.61,15.44h12.26l-1.82-17-2.43-29.42-46.25,4.62Z" style="fill: #fefbf5"/>
          <path d="M244.35,189.53,244,185.4l-42.49,4.37,1.82,21.77L240,207.89Z" style="fill: #fefbf5"/>
          <path d="M186,118.9h-15.9l-1.82,8.27H186Z" style="fill: #fefbf5"/>
          <path d="M237.8,121.69l-39.7-2.79-1.58,9.36,1.7,20.42,41.88-4Zm-38.36,6.57,2.18-6,34.48,2.19,1.94,17L200.53,146Z" style="fill: #fefbf5"/>
          <path d="M241.93,164.37l-1.7-18-41.89,4,1.58,19.21Z" style="fill: #fefbf5"/>
          <path d="M128.66,269.77l-16.27,1-.12-1.09v4.86h16.51Z" style="fill: #fefbf5"/>
          <path d="M257.83,39.88l.24.6V28a17,17,0,0,0-16.87-17h-5.35V48.51Z" style="fill: #fefbf5"/>
          <path d="M192.88,259.43,156.7,242.05l-1.33-24.92-1.46.12-.24,32.22L129,250.68v.73l.48,16.66,63.25-4C192.76,262.6,192.76,261,192.88,259.43Zm-62.4-6.56L165,250.44l22.46,10.45-56.94,3Z" style="fill: #fefbf5"/>
          <path d="M247.51,81.7,249,72.94c-13-4.62-13.84-18.23-13.84-22.24l-8.5,3.4,12.75,25.65Z" style="fill: #fefbf5"/>
          <path d="M201.26,187.46l17.6-1.82-3.52-15.56L199.92,172Z" style="fill: #fefbf5"/>
          <path d="M237.8,95.19H204.9L202.11,95l-3.77,21.64,39.09,2.67-.85-9.36L240.47,96Z" style="fill: #fefbf5"/>
          <path d="M237,91.18l.36-10.33-13-26-20,7.9,6.92,28.33ZM223.72,58,235.61,80.6l-1.7,7.05-20.27-.85-5.1-21.39Z" style="fill: #fefbf5"/>
          <path d="M242.17,215.55l.6,20.3L257.1,235v.85l-14.33.85.73,24.19L257,260l.12,1.58-13.6.85.37,12H257l.24-67.59-13.47,1.33Z" style="fill: #fefbf5"/>
          <path d="M155.37,51.3l-30.23-4.37-7.53,37.68,37.88,2.8C155.61,81.7,155.49,63.83,155.37,51.3Z" style="fill: #fefbf5"/>
          <path d="M205.14,91.18h4.62l-6.44-26.62-16.87.73.36,24.55Z" style="fill: #fefbf5"/>
          <path d="M156.22,87.53,186,89.72l-.36-24.43L156.34,66.5C156.34,74.77,156.34,83.52,156.22,87.53Z" style="fill: #fefbf5"/>
          <path d="M242.05,166.68l-26,3.16,3.52,15.56,24-2.55Z" style="fill: #fefbf5"/>
          <path d="M249.09,72.09l1.7-9.84,7.16.6.12-21.27L236,50.33C235.49,65.29,244.84,70.51,249.09,72.09Z" style="fill: #fefbf5"/>
          <path d="M240.59,110.27l.85,9.36,16.15,1.09.12-19.21-13.48-4.25Z" style="fill: #fefbf5"/>
          <path d="M248.36,189.77l-4.25,17.63,13.23-1.33.12-18.61c-4.12-1.09-7.64-1.94-9.59-2.31Z" style="fill: #fefbf5"/>
          <path d="M239.38,91.42l18.45,5.84V86.8l-18.09-4.74Z" style="fill: #fefbf5"/>
          <path d="M247.63,182.85a85.18,85.18,0,0,1,9.71,2.3l.12-40.6L244,145.89Z" style="fill: #fefbf5"/>
          <path d="M243.87,144.31,257.59,143l.12-19.94-15.91-1.09Z" style="fill: #fefbf5"/>
          <path d="M250.67,72.58A68.54,68.54,0,0,0,258,74.4V64.31l-5.83-.48Z" style="fill: #fefbf5"/>
          <path d="M249.09,82.06l8.74,2.31V75.25c-2.31-.48-4.74-1.09-7.41-1.82Z" style="fill: #fefbf5"/>
          <path d="M128.66,269.77l.12,4.74h.85l-.12-4.86,63.13-4c-.12,3.16-.24,6.07-.37,8.87h1.58c.12-2.55.25-5.59.37-8.87l13.59-.86,1.95,9.85h.84l-1.94-9.85,31-1.94.36,11.79h4l-.36-12,13.59-.86-.12-1.58-13.47.86-.73-24.2,14.32-.85v-.85L242.9,236l-.61-20.3,1.7-7.3L257.46,207v-.85l-13.23,1.33,4.25-17.62-.48-4.5c1.94.36,5.46,1.21,9.59,2.31v-2.56c-5.47-1.45-8.26-2.06-9.72-2.31l-3.52-37,13.48-1.34V143l-13.72,1.34-2.18-22.37,15.9,1.09V120.6l-16.15-1.09-.85-9.37,3.65-13L258,101.39V97.26L239.5,91.42l.36-9.36L258,86.8V84.37l-8.74-2.31,1.46-8.75a49.62,49.62,0,0,0,7.4,1.82v-.85c-2.43-.49-4.85-1.09-7.28-1.82l1.45-8.63,5.83.48V62.73l-7.16-.61L249.21,72c-4.25-1.58-13.6-6.81-13.11-21.76l22.09-8.75v-1l-.24-.6L236.1,48.51V10.94h-.73V48.87l-9.23,3.65L212.3,24.68a4.73,4.73,0,0,1-2.18.85L224,53.25l-21.12,8.39.48,1.94-16.63.73-.61-38.9h-.85l.61,38.9-29.26,1.22c0-6-.12-11.55-.12-14.71v-.37l-1.82-40h-.85l1.82,39.87L125.51,46l7.16-35.74h-2.43l-7,35.38-9.59-1.34-.12.49V45L123,46.32l-7.65,37.93-2.07-.12v4l14.94,1.09v19.7l-14.94,3.4v2.43l17.36-4V89.48l55.6,4.13v22.74H168.36l-2.31,10.57H151.61l-38.49,7v2.43l38.73-7.05h44.07l1.57,19.33-45.76,4.38.12,1.58,45.77-4.38,3,37-46.25-6.08-.37,2.43,46.74,6.08,1.82,21.89-48.92,5-25.37,1.82V185l24-14.1-1.21-2.07L127.57,182.6l-14.69-1.94v2.43L127.45,185v21.28l-14.57,1.58v2.43l14.69-1.58v10.58l.85,30-15.66,6.2v2.56l15.78-6.2.49,16.29-16.27,1.09v.49l.12,1.09Zm65.56-5.72c0-1.45.12-2.79.12-4.25h12.38l.73,3.4Zm14.08-1-.85-3.77-1.82-17.5L204.54,229l33.86-2.55,1.1,34.65ZM216,211.17l17.84-1.82-.48,7.05-15.91,1.7Zm-.73,0,3,15.32-13.71,1.09-1.22-15.07Zm23.18,13.74L219,226.37l-1.33-6.81,17.11-1.82.61-8.64,4.25-.48L238,215.06ZM215.34,170l3.52,15.56-17.6,1.82L200,171.78Zm4.25,15.56L216.07,170l26-3.16,1.58,16.29Zm17.84-66.26-39.09-2.67L202.11,95l2.79.24h32.9l2.67.85-3.76,13.86Zm-2.3-68.69c0,4.14.85,17.63,13.84,22.25l-1.46,8.88-8-2.07L226.75,54Zm-10.69,4.26,13,26-.36,10.33H211.33l-6.92-28.33Zm-21.36,9.73,6.43,26.62H205l-18.33-1.34-.36-24.56Zm-17.6.72.36,24.44L156.1,87.53c.12-4,.12-12.76,0-21ZM125.14,47.05l30.23,4.38c.12,12.52.24,30.39.12,36.22l-37.88-2.79ZM201.26,95l-5.59,32.22h-8.86V93.85Zm-31.2,24H186v8.27h-17.6Zm26.22,9.48,1.58-9.36,39.69,2.8,2.19,23-41.88,4ZM240,146.25l1.7,18-42.12,5.23L198,150.26Zm-38.6,43.65,42.49-4.38.36,4.13L239.86,208l-36.66,3.65Zm3.4,52,1.82,17H194.46c.24-5.59.36-11.31.61-15.44.24-7.54.24-7.54-.25-7.78l-.36.73h-.85c0,.61-.37,11.06-.85,22.12l-35.33-17-1.21-24.43,46.25-4.62Zm-51.84-24.44-.24,31.37L128.78,250l-.85-30.76Zm-24,34v-.73l24.65-1.21.24-32.22,1.46-.12,1.33,24.92,36.18,17.39c0,1.58-.12,3-.12,4.62l-63.25,4Z" style="fill: #fff"/>
          <path d="M165,250.44l-34.48,2.43v11.06l56.94-3Z" style="fill: #eedad5"/>
          <path d="M236.1,124.61l-34.48-2.19-2.18,6L200.65,146l37.51-4.5Z" style="fill: #eedad5"/>
          <path d="M129.15,316.57l110.83.49a17,17,0,0,0,17-16.9l.12-25.65H112.39l-.12,19.33v6.08A17,17,0,0,0,129.15,316.57Z" style="fill: #eedad5"/>
          <path d="M152.09,47.17l-.6-32.46H134.61L129.75,44Z" style="fill: #eedad5"/>
          <path d="M233.79,87.65l1.7-7.05L223.6,58l-15.18,7.54,5.1,21.39Z" style="fill: #eedad5"/>
          <path d="M130.48,186.74c.25,1,0,28.56,0,28.56l22.22-1.45-2.55-37.57Z" style="fill: #eedad5"/>
          <path d="M204.54,209.1l-1.22-17,38.12-4.86v2.92l-4.61,15.68Z" style="fill: #eedad5"/>
          <path d="M176.37,67.72a4.61,4.61,0,1,1-4.61-4.62A4.61,4.61,0,0,1,176.37,67.72Z" style="fill: #ff703e"/>
          <g style="opacity: 0.6000000238418579">
            <path d="M176.31,67.56a4.68,4.68,0,1,1-4.86-4.5A4.57,4.57,0,0,1,176.31,67.56Z" style="fill: #fff;opacity: 0.6000000238418579;isolation: isolate"/>
          </g>
          <path d="M171.76,70.63a3,3,0,1,0-3-3A3,3,0,0,0,171.76,70.63Z" style="fill: #ff703e"/>
          <path d="M243.38,253.11a2,2,0,1,1-1.94-2.06,1.93,1.93,0,0,1,1.33.6A2.52,2.52,0,0,1,243.38,253.11Z" style="fill: #ff703e"/>
          <path d="M240.23,252.51l-.49-11.19-33.5,1.58a6.22,6.22,0,0,1-2.55-.49l-47.47-23.95a3.77,3.77,0,0,1-1.94-2.91L147.84,90.09a2.14,2.14,0,0,1,1.95-2.19H150l20.39,1.46V67.11h2.43V89.72a2.09,2.09,0,0,1-2.19,2.19l-20.27-1.46,6.44,125.1a.92.92,0,0,0,.6.85l47.47,24.07a1.71,1.71,0,0,0,1.34.24L240,239a2,2,0,0,1,1.58.61,2.09,2.09,0,0,1,.73,1.46l.48,11.43Z" style="fill: #ff703e"/>
          <path d="M151.85,150.51a6,6,0,1,0-5.95-6A6,6,0,0,0,151.85,150.51Z" style="fill: #ff703e"/>
          <path d="M151.85,148.68a4.13,4.13,0,1,0-4.13-4.13A4.13,4.13,0,0,0,151.85,148.68Z" style="fill: #fafafa"/>
          <path d="M151.85,149.05a4.5,4.5,0,1,1,4.49-4.5A4.49,4.49,0,0,1,151.85,149.05Zm0-8.39a3.89,3.89,0,1,0,3.88,3.89A3.91,3.91,0,0,0,151.85,140.66Z" style="fill: #ff703e"/>
          <path d="M187.18,119.38H158.52a2.57,2.57,0,0,0-2.54,2.56v10.33a2.56,2.56,0,0,0,2.54,2.55h.37v2.44l2.91-2.44h25.38a2.57,2.57,0,0,0,2.55-2.55V121.94A2.5,2.5,0,0,0,187.18,119.38Z" style="fill: #ff703e"/>
          <g style="opacity: 0.4000000059604645">
            <path d="M187.17,119.36H158.52a2.57,2.57,0,0,0-2.55,2.55v10.33a2.58,2.58,0,0,0,2.55,2.56h.37v2.43l2.91-2.43h25.37a2.57,2.57,0,0,0,2.55-2.56V121.91A2.49,2.49,0,0,0,187.17,119.36Z" style="fill: #fff;opacity: 0.4000000059604645;isolation: isolate"/>
          </g>
          <path d="M162.53,126.92a1.76,1.76,0,0,1,3.52-.12,1.76,1.76,0,1,1-3.52.12Zm2.92,0a1.22,1.22,0,1,0-1.22,1.22A1.15,1.15,0,0,0,165.45,126.92Z" style="fill: #fff"/>
          <path d="M169.09,127.29a1.2,1.2,0,0,1-1.1,1.21h-.12a1,1,0,0,1-.85-.36v.36h-.48v-3.4H167v1.33a1.13,1.13,0,0,1,.85-.36,1.22,1.22,0,0,1,1.22,1.22Zm-.37,0a.32.32,0,0,0-.36.36.37.37,0,1,0,.73,0C169,127.41,168.84,127.29,168.72,127.29Z" style="fill: #fff"/>
          <path d="M169,129.35l.12-.36a.44.44,0,0,0,.36.12c.24,0,.37-.12.37-.49v-2.55h.48v2.55a.92.92,0,0,1-.61.86h-.12A2.28,2.28,0,0,1,169,129.35Zm.72-4c0-.12.13-.36.25-.36s.36.12.36.24-.12.36-.24.36S169.69,125.46,169.69,125.34Z" style="fill: #fff"/>
          <path d="M173.21,127.41h-1.94a.81.81,0,0,0,.85.73,1.59,1.59,0,0,0,.73-.25l.24.25a1.48,1.48,0,0,1-1.94,0,1.13,1.13,0,0,1-.36-.85,1.2,1.2,0,0,1,1.09-1.22H172a1.2,1.2,0,0,1,1.21,1.1v.24Zm-1.94-.24h1.58a.83.83,0,0,0-.85-.86A.82.82,0,0,0,171.27,127.17Z" style="fill: #fff"/>
          <path d="M173.7,127.29a1.15,1.15,0,0,1,1.21-1.22H175a1.11,1.11,0,0,1,1,.49l-.37.24a.66.66,0,0,0-.6-.36.77.77,0,0,0-.73,1,.79.79,0,0,0,.73.73.65.65,0,0,0,.6-.37l.37.25a1.12,1.12,0,0,1-1,.48,1.18,1.18,0,0,1-1.34-1.21Z" style="fill: #fff"/>
          <path d="M178,128.38a.74.74,0,0,1-.49.12c-.36.12-.72-.24-.85-.61v-1.58h-.36V126h.36v-.49h.49V126h.73v.36h-.73v1.34c0,.24.12.37.24.37h.12a.43.43,0,0,0,.37-.13Z" style="fill: #fff"/>
          <path d="M178.43,125.34a.27.27,0,0,1,.25-.24.26.26,0,0,1,.24.24.39.39,0,0,1-.36.37C178.31,125.71,178.43,125.46,178.43,125.34Zm0,.73h.49v2.43h-.49Z" style="fill: #fff"/>
          <path d="M182,126.07l-1.1,2.43h-.48l-1.09-2.43h.48l.85,2,.85-2Z" style="fill: #fff"/>
          <path d="M184.51,127.41h-1.95a.81.81,0,0,0,.85.73,1.63,1.63,0,0,0,.73-.25l.24.25a1.37,1.37,0,0,1-1,.36,1.31,1.31,0,0,1-1.33-1.09v-.12a1.2,1.2,0,0,1,1.09-1.22h.12a1.21,1.21,0,0,1,1.22,1.1v.24Zm-2.07-.24H184a.84.84,0,0,0-.85-.86A.82.82,0,0,0,182.44,127.17Z" style="fill: #fff"/>
          <path d="M177.71,52.16a6,6,0,1,0-11.9,0,5.89,5.89,0,0,0,.85,3.16c.24.36.49.6.85,1.09l3.4,4.62a1,1,0,0,0,1.46.24l.24-.24,3.4-4.5a7.35,7.35,0,0,0,.85-1.09A7.43,7.43,0,0,0,177.71,52.16Zm-5.83,2.55A2.68,2.68,0,1,1,174.55,52,2.88,2.88,0,0,1,171.88,54.71Z" style="fill: #ff703e"/>
          <path d="M139.22,286.67h-1.09v-.37h2.67v.37h-1.09v2.79h-.49Z" style="fill: #40231a"/>
          <path d="M140.8,288.25a1.34,1.34,0,0,1,1.21-1.34,1.43,1.43,0,0,1,1.34,1.22,1.33,1.33,0,0,1-1.21,1.33,1.18,1.18,0,0,1-1.34-1.21Zm2.07,0a.83.83,0,0,0-.86-.85.85.85,0,0,0,0,1.7A.84.84,0,0,0,142.87,288.25Z" style="fill: #40231a"/>
          <path d="M145.29,289.34c-.12.12-.36.24-.48.12a.91.91,0,0,1-.85-.6v-1.59h-.37v-.36H144v-.49h.48v.49h.73v.36h-.73v1.34c0,.25.13.37.25.37h.12a.44.44,0,0,0,.36-.12Z" style="fill: #40231a"/>
          <path d="M147.84,288v1.46h-.36v-.36a1.11,1.11,0,0,1-.85.36c-.61,0-.85-.24-.85-.73s.24-.73,1-.73h.73a.57.57,0,0,0-.61-.6,2.27,2.27,0,0,0-.85.24l-.24-.37a1.39,1.39,0,0,1,1-.36.94.94,0,0,1,1.09.73Zm-.48.73v-.36h-.73c-.49,0-.61.12-.61.36s.24.37.49.37A.67.67,0,0,0,147.36,288.73Z" style="fill: #40231a"/>
          <path d="M148.57,286.06h.49v3.4h-.49Z" style="fill: #40231a"/>
          <path d="M153.43,286.06v3.4h-.37v-.36c-.24.24-.48.48-.85.36a1.22,1.22,0,0,1,0-2.43,1.07,1.07,0,0,1,.85.37v-1.34Zm-.37,2.19c0-.49-.36-.73-.85-.73a.8.8,0,0,0-.73.85c0,.49.37.73.85.73a.63.63,0,0,0,.49-.24A1,1,0,0,0,153.06,288.25Z" style="fill: #40231a"/>
          <path d="M154.28,286.3c0-.24.12-.36.24-.36s.36.12.36.24-.12.37-.24.37h-.12A.27.27,0,0,1,154.28,286.3Zm0,.73h.48v2.43h-.48Z" style="fill: #40231a"/>
          <path d="M155.25,289.22l.24-.36a2.27,2.27,0,0,0,.85.24c.37,0,.61-.12.61-.37,0-.6-1.58-.12-1.58-1.09,0-.49.36-.73,1-.73a1.74,1.74,0,0,1,.85.24l-.24.37a1.77,1.77,0,0,0-.73-.25c-.37,0-.61.13-.61.37,0,.61,1.58.12,1.58,1.09,0,.49-.36.73-1.09.73A4.92,4.92,0,0,1,155.25,289.22Z" style="fill: #40231a"/>
          <path d="M159.25,289.34c-.12.12-.36.24-.48.12a.91.91,0,0,1-.85-.6v-1.59h-.37v-.36H158v-.49h.48v.49h.73v.36h-.73v1.34c0,.25.13.37.25.37h.12a.44.44,0,0,0,.36-.12Z" style="fill: #40231a"/>
          <path d="M161.8,288v1.46h-.36v-.36a1.11,1.11,0,0,1-.85.36c-.61,0-.85-.24-.85-.73s.24-.73,1-.73h.73a.57.57,0,0,0-.61-.6,2.32,2.32,0,0,0-.85.24l-.12-.37a1.39,1.39,0,0,1,1-.36.94.94,0,0,1,1.09.73C161.8,287.88,161.8,287.88,161.8,288Zm-.48.73v-.36h-.73c-.49,0-.61.12-.61.36s.25.37.49.37A.67.67,0,0,0,161.32,288.73Z" style="fill: #40231a"/>
          <path d="M165,288v1.46h-.49v-1.33c0-.49-.24-.73-.6-.73a.91.91,0,0,0-.85.6v1.34h-.49v-2.43h.37v.36a1.3,1.3,0,0,1,.85-.36,1.16,1.16,0,0,1,1.09.85A.37.37,0,0,1,165,288Z" style="fill: #40231a"/>
          <path d="M165.57,288.25a1.15,1.15,0,0,1,1.21-1.22h.12a1.08,1.08,0,0,1,1,.49l-.36.24a.73.73,0,0,0-.73-.36.77.77,0,0,0-.73,1,.79.79,0,0,0,.73.73,1,1,0,0,0,.73-.37l.36.25a.89.89,0,0,1-1,.48A1.17,1.17,0,0,1,165.57,288.25Z" style="fill: #40231a"/>
          <path d="M170.54,288.37H168.6a.8.8,0,0,0,.85.73,1.75,1.75,0,0,0,.73-.24l.24.24a1.37,1.37,0,0,1-1,.36,1.31,1.31,0,0,1-1.33-1.09v-.12a1.2,1.2,0,0,1,1.09-1.22h.12a1.2,1.2,0,0,1,1.21,1.1v.24Zm-1.94-.24h1.58a.83.83,0,0,0-.85-.86A.82.82,0,0,0,168.6,288.13Z" style="fill: #40231a"/>
          <path d="M142.14,293.11v7.66h-1.82v-6.32h-1.58V293h3.4Z" style="fill: #40231a"/>
          <path d="M145.66,299.8a3.31,3.31,0,0,1-.25,1.09l-.6,1.58h-1.1l.49-1.7a1,1,0,0,1-.61-1,.94.94,0,0,1,1.1-1C145.17,298.82,145.54,299.31,145.66,299.8Z" style="fill: #40231a"/>
          <path d="M149.3,293.11v7.66h-1.82v-6.32H145.9V293h3.4Z" style="fill: #40231a"/>
          <path d="M150.51,297c0-2.55,1.46-4,3.28-4s3.28,1.46,3.28,4-1.46,4-3.28,4S150.51,299.55,150.51,297Zm4.86,0c0-1.7-.61-2.43-1.46-2.43s-1.45.73-1.45,2.43.6,2.43,1.45,2.43S155.37,298.7,155.37,297Z" style="fill: #40231a"/>
          <path d="M158,297c0-2.55,1.46-4,3.28-4s3.28,1.46,3.28,4-1.46,4-3.28,4S158,299.55,158,297Zm4.86,0c0-1.7-.61-2.43-1.46-2.43S160,295.3,160,297s.61,2.43,1.46,2.43S162.9,298.7,162.9,297Z" style="fill: #40231a"/>
          <path d="M179,297.36v3.41h-1.7v-3c0-1-.48-1.46-1.09-1.46s-1.34.49-1.34,1.58v2.92h-1.7v-3c0-1-.36-1.46-1.09-1.46s-1.33.49-1.33,1.58v2.92h-1.7v-6h1.57v.73a2.83,2.83,0,0,1,1.83-.85,2.54,2.54,0,0,1,1.94,1,2.81,2.81,0,0,1,2.18-1,2.31,2.31,0,0,1,2.43,2.19Z" style="fill: #40231a"/>
          <path d="M127.69,299.19A6.69,6.69,0,1,0,121,292.5,6.68,6.68,0,0,0,127.69,299.19Z" style="fill: #ff703e"/>
          <path d="M125,293.72a8.11,8.11,0,0,1,1.7-.12c1.09,0,2.67,0,4.49-.12l-.12.24c-.49-.61-1.09-1.22-1.7-2l-.12-.12.12-.12,1.7-2.07.12.37H124.9l.24-.12c0,2.06,0,3.77-.12,4.86a11.14,11.14,0,0,1-.12,1.94,9.86,9.86,0,0,1-.12-1.94c0-1.22,0-2.92-.12-4.86v-.25h6.79l-.24.37-1.7,2.06v-.24l1.7,2,.24.24h-.36c-1.82,0-3.4,0-4.49-.12A3.51,3.51,0,0,1,125,293.72Z" style="fill: #fafafa"/>
          <path d="M235.25,281.07H215.1a3.84,3.84,0,0,0-3.89,3.89v15.81a3.84,3.84,0,0,0,3.89,3.89h.48v3.77l4.37-3.77h15.18a3.91,3.91,0,0,0,3.88-3.89V285A3.9,3.9,0,0,0,235.25,281.07Z" style="fill: #ff703e"/>
          <path d="M217,288.37v8.14a.38.38,0,0,0,.36.37h17a.39.39,0,0,0,.36-.37v-3l-2.42-3.29c0-.12-.13-.12-.25-.12H229.3a.38.38,0,0,1-.36-.36v-1.22c0-.12-.12-.36-.25-.36H217.52C217.16,288.13,217,288.25,217,288.37Z" style="fill: #fafafa"/>
          <path d="M229.54,290.68v2.67c0,.13.12.13.25.13l3.76-.13c.12,0,.12-.12.12-.24V293l-1.82-2.55-.12-.13h-1.94C229.54,290.44,229.54,290.56,229.54,290.68Z" style="fill: #ff703e"/>
          <path d="M235,297.12H216.68v.61H235Z" style="fill: #fafafa"/>
          <path d="M222.74,297.36a1.82,1.82,0,1,1-1.82-1.82A1.78,1.78,0,0,1,222.74,297.36Z" style="fill: #ff703e"/>
          <path d="M222,297.36a1.1,1.1,0,1,1-1.1-1.09A1.1,1.1,0,0,1,222,297.36Z" style="fill: #fafafa"/>
          <path d="M228.69,296.88s-.12-1.95-.12-4.38c0-1.46,0-2.92.12-4.37.13,1.45.12,2.91.12,4.37A27,27,0,0,1,228.69,296.88Z" style="fill: #ff703e"/>
          <path d="M232.7,297.36a1.82,1.82,0,1,1-1.82-1.82A1.79,1.79,0,0,1,232.7,297.36Z" style="fill: #ff703e"/>
          <path d="M231.85,297.36a1.1,1.1,0,1,1-1.09-1.09A1.09,1.09,0,0,1,231.85,297.36Z" style="fill: #fafafa"/>
          <path d="M230.76,294a1.54,1.54,0,0,1-.61.12c-.36,0-.61,0-.61-.12s.25-.12.61-.12A1.54,1.54,0,0,1,230.76,294Z" style="fill: #ff703e"/>
          <path d="M420.28,160.51s12.87,2.19,13.84,2.43,5.1,2.19,5.34,3.41a30.33,30.33,0,0,1,0,4.86s-.72.61-1.21-.61a8.83,8.83,0,0,1-.36-3.52l-2.31-.85,1.21,2.18.25,5.11s-1.58-.12-1.94-1.34a9.26,9.26,0,0,1-.25-2.67l-1.7-1.46,1.22,1.7.36,3.77s-1.21.36-1.58-.49a15.19,15.19,0,0,1-.36-3.28l-4.62-1.58-3,1.7-5.83-3.28Z" style="fill: #ffcfbf"/>
          <path d="M375.49,128.78c.12.24,15.42,21.52,15.42,21.52l30.95,9.6-1.46,11.67-37.87-7.65-13.48-15.44Z" style="fill: #ff703e"/>
          <g style="opacity: 0.20000000298023224">
            <path d="M375.43,128.84c.12.24,15.42,21.52,15.42,21.52l31,9.6-1.46,11.67L382.48,164,369,148.53Z" style="fill: #40231a;opacity: 0.20000000298023224;isolation: isolate"/>
          </g>
          <path d="M260.65,158.08h59a4.57,4.57,0,0,1,4.49,4.5V166a4.57,4.57,0,0,1-4.49,4.5h-59a4.57,4.57,0,0,1-4.5-4.5v-3.4A4.42,4.42,0,0,1,260.65,158.08Z" style="fill: #eedad5"/>
          <path d="M321.71,170.36h.36a2.46,2.46,0,0,0,1.95-2.07v-7.78a2.58,2.58,0,0,0-.85-1.7,3.56,3.56,0,0,0-.85-.49,3.44,3.44,0,0,0-1.1-.12h-7.4l-55.24.12a2.44,2.44,0,0,0-1.7.73,3,3,0,0,0-.6,1.71v6.92a1.87,1.87,0,0,0,.12.86,2.07,2.07,0,0,0,1.94,1.58h40.55l16.75.12h0l-16.75.12H258.22a1.34,1.34,0,0,1-1-.37,2.55,2.55,0,0,1-1.22-1.58,3,3,0,0,1-.12-1v-6.93a2.72,2.72,0,0,1,.73-1.94,2.41,2.41,0,0,1,1.94-.85l55.24.12h7.4a3.44,3.44,0,0,1,1.1.12,2.34,2.34,0,0,1,1,.49,2.59,2.59,0,0,1,.85,1.82v7.9a3.45,3.45,0,0,1-1,1.7,4.09,4.09,0,0,1-1.1.49C322,170.24,321.83,170.36,321.71,170.36Z" style="fill: #40231a"/>
          <path d="M491.54,327.92A32.59,32.59,0,1,0,459,295.33,32.57,32.57,0,0,0,491.54,327.92Z" style="fill: #40231a"/>
          <path d="M457.8,288.65a32.47,32.47,0,1,0,64.94,1v-.12Z" style="fill: #40231a"/>
          <path d="M468.72,295a22.83,22.83,0,1,0,23.19-22.49A22.82,22.82,0,0,0,468.72,295Z" style="fill: #fafafa"/>
          <path d="M491.91,272.48A22.89,22.89,0,0,0,468.72,295l45.65.61A22.87,22.87,0,0,0,491.91,272.48Z" style="fill: #fff7df"/>
          <path d="M477.58,295.09a13.9,13.9,0,1,0,14.09-13.74A13.95,13.95,0,0,0,477.58,295.09Z" style="fill: #40231a"/>
          <path d="M476.13,247.56s33.26-10.09,47,26.14l-69.56,21.63Z" style="fill: #ff703e"/>
          <path d="M291.12,327.92a32.59,32.59,0,1,0-32.54-32.59A32.56,32.56,0,0,0,291.12,327.92Z" style="fill: #40231a"/>
          <path d="M258.7,294.73a32.48,32.48,0,1,0,64.95,1v-.12Z" style="fill: #40231a"/>
          <path d="M268.42,295a22.82,22.82,0,1,0,23.18-22.49A22.81,22.81,0,0,0,268.42,295Z" style="fill: #fafafa"/>
          <path d="M291.48,272.48A22.71,22.71,0,0,0,268.42,295l45.64.61A22.89,22.89,0,0,0,291.48,272.48Z" style="fill: #fff7df"/>
          <path d="M277.28,295.09a13.9,13.9,0,1,0,14.08-13.74A13.95,13.95,0,0,0,277.28,295.09Z" style="fill: #40231a"/>
          <path d="M337.37,282.2c-.24.13-17.12-2.67-17.12-2.67a10.05,10.05,0,0,1-7.77,4c-7.28.37-14.44.73-20.63,1a10.38,10.38,0,0,0-10,10.94A10.56,10.56,0,0,0,292,305.55L328,307c6,.24,13.84-3.41,17.48-8Z" style="fill: #6b3a2c"/>
          <path d="M249,267.86s-1.58-31.73,28.17-38.29v-4H381.32v9.73S366,253.76,371,269.08,377.55,286,377.55,286h59.24a40.5,40.5,0,0,0,7.53-22.49c.36-13.49-5.22-36.47-9.47-51.06-3.76-13.37-6.19-24.55-6.19-24.55l17.85-6s32.89,43.16,34.23,45.59,5.95,8,4.86,20.42-30.72,50.58-38.49,55-14.81,4.62-21.73,5.72c-6.07,1-51,.36-62.76.12A23,23,0,0,1,351,305.55c-3.52-2.19-6.2-5.72-9.11-11.43L335.67,282Z" style="fill: #ff703e"/>
          <path d="M257,265.67l-13.11,20.55a3.14,3.14,0,0,0,.85,4.37,3,3,0,0,0,3,.25,13.51,13.51,0,0,0,4.37-3c6-5.6,16.63-20.67,16.63-20.67Z" style="fill: #005e7f"/>
          <path d="M351.09,269.32c0-.12,0-.24.12-.24l.24-.85a15.08,15.08,0,0,0,.73-3.41,23,23,0,0,0-2.06-12.4,26.54,26.54,0,0,0-4.86-7.29,32,32,0,0,0-7.89-6.08,39.83,39.83,0,0,0-10.44-3.89,55.7,55.7,0,0,0-11.9-1.22,97.28,97.28,0,0,0-11.89.85,100.24,100.24,0,0,0-11.05,2,66.09,66.09,0,0,0-17.73,6.56,39.31,39.31,0,0,0-10.07,7.78,32.9,32.9,0,0,0-2.31,2.56l-.6.73c0,.12-.13.12-.25.24a21.17,21.17,0,0,1,2.92-3.65,42.64,42.64,0,0,1,10.07-7.9,66.62,66.62,0,0,1,17.73-6.69,98.19,98.19,0,0,1,11-1.94,79.66,79.66,0,0,1,12-.85,57.68,57.68,0,0,1,12,1.21,40.49,40.49,0,0,1,10.44,4,30.77,30.77,0,0,1,8,6.2,25.28,25.28,0,0,1,4.86,7.42,23.32,23.32,0,0,1,1.94,12.52,17.72,17.72,0,0,1-.85,3.41,3,3,0,0,0-.24.85C351.21,269.2,351.09,269.32,351.09,269.32Z" style="fill: #40231a"/>
          <path d="M345,262.27l.36-1.46a11.05,11.05,0,0,0,.12-4,17.17,17.17,0,0,0-1.94-5.47c-.61-1-1.21-2-1.94-2.92a18.31,18.31,0,0,0-2.55-2.68,21.33,21.33,0,0,0-6.19-3.64,30.18,30.18,0,0,0-5.71-1.58c-1.33-.25-2.67-.37-4-.49a6,6,0,0,1-1.46-.12h1.46a22.54,22.54,0,0,1,4,.36,25.94,25.94,0,0,1,5.83,1.46,20.36,20.36,0,0,1,6.31,3.65,19.72,19.72,0,0,1,2.67,2.79c.73,1,1.34,2,1.94,2.92a17.68,17.68,0,0,1,1.95,5.72,9,9,0,0,1-.25,4,8.5,8.5,0,0,1-.36,1A.64.64,0,0,1,345,262.27Z" style="fill: #fefbf5"/>
          <g style="opacity: 0.4000000059604645">
            <path d="M324.67,234.43a40.91,40.91,0,0,1,15.66,6.32,28.8,28.8,0,0,1,10.56,13.13,23.25,23.25,0,0,1-.36,16.9l7.4.61c2.43-8.27-.24-18.48-6.19-24.93A36.7,36.7,0,0,0,324.67,234.43Z" style="fill: #40231a;opacity: 0.4000000059604645;isolation: isolate"/>
          </g>
          <path d="M261.5,169.75h57.17a10.45,10.45,0,0,1,10.44,10.46V215.1a10.44,10.44,0,0,1-10.44,10.45H261.5a10.44,10.44,0,0,1-10.44-10.45V180.21A10.45,10.45,0,0,1,261.5,169.75Z" style="fill: #6b3a2c"/>
          <path d="M329.11,182.15c0,.12-17.6.25-39.21.25s-39.21-.13-39.21-.25,17.48-.24,39.21-.24S329.11,182,329.11,182.15Z" style="fill: #40231a"/>
          <path d="M381.32,229.2c0,.12-23.43.24-52.33.24s-52.32-.12-52.32-.24S300.1,229,329,229,381.32,229.08,381.32,229.2Z" style="fill: #40231a"/>
          <path d="M381.32,225.43a9.24,9.24,0,0,0,1.94-4.62c.12-2.67-1-5.83-3.89-5.83H343.44a10.57,10.57,0,0,0-10.56,10.57Z" style="fill: #40231a"/>
          <path d="M428.78,187.62l-6.31-13a8,8,0,0,1,3.16-10.21l18.69-11.18a6,6,0,0,1,3.28-.85h4l1.58,26.38L447,181.18l4,6.44Z" style="fill: #ff703e"/>
          <path d="M451.73,153.34s6.43,1.46,7.16,11.31-5.71,13-5.71,13Z" style="fill: #eedad5"/>
          <path d="M431,169.51s-13,6.2-14.57,7.17a3.16,3.16,0,0,0-1.22,4.13c1.46,3.65,7.53.25,7.53.25l12-6.08s4.61-2.19,2.91-5C435.82,167,431,169.51,431,169.51Z" style="fill: #40231a"/>
          <path d="M412.64,167.2s12.14,2.06,13.23,2.43,5.1,2.19,5.34,3.4a33,33,0,0,1,0,4.87s-.73.6-1.21-.61a11.48,11.48,0,0,1-.37-3.53l-2.3-.85,1.21,2.19.24,5.23s-1.58-.12-1.94-1.34a18.63,18.63,0,0,1-.36-2.55l-1.7-1.46,1.21,1.7.36,3.77s-1.21.36-1.57-.49a14.67,14.67,0,0,1-.37-3.28l-4.61-1.58-3,1.7-4.85-2.67Z" style="fill: #ffcfbf"/>
          <path d="M431.57,150.3c0,5-2.3,8.88-5.09,8.88s-5.1-4-5.1-8.88,2.3-8.87,5.1-8.87S431.57,145.32,431.57,150.3Z" style="fill: #40231a"/>
          <path d="M427.45,156.38l2.79,9.6a2.44,2.44,0,0,0,1.33-2.79c-.72-3.29-1.09-5.59-1.82-8.51C429.51,154.43,427.45,156.38,427.45,156.38Z" style="fill: #40231a"/>
          <g style="opacity: 0.4000000059604645">
            <path d="M372.38,273c-.24-.85-.61-1.58-.85-2.43s-.49-1.58-.73-2.43a19.67,19.67,0,0,1-.73-3.65c-4.73,19.09,2.43,32.58,14.69,33.56,18,1.33,39.82,2.43,48.68.12,16.15-4.26,22.1-17.75,23.43-19.94s14.21-25.65,6.31-48.26-21.6-46.57-21.6-46.57l-13,4.38S431,199,434.78,212.33c4.12,14.71,9.71,37.68,9.47,51.06a40.7,40.7,0,0,1-7.53,22.49H377.48C377.6,285.76,376.39,284.54,372.38,273Z" style="fill: #40231a;opacity: 0.4000000059604645;isolation: isolate"/>
          </g>
          <path d="M246.56,262.88l.37-4.5L355.21,270.9a10.69,10.69,0,0,1,9.35,11.91,1.1,1.1,0,0,1-.12.61l-.49,2.8L252,269.93A6.75,6.75,0,0,1,246.56,262.88Z" style="fill: #ff703e"/>
          <g style="opacity: 0.6000000238418579">
            <path d="M246.59,262.84l.37-4.5,108.28,12.52a10.69,10.69,0,0,1,9.35,11.91,1.1,1.1,0,0,1-.12.61l-.49,2.8L252.05,269.89A6.65,6.65,0,0,1,246.59,262.84Z" style="fill: #40231a;opacity: 0.6000000238418579;isolation: isolate"/>
          </g>
          <g style="opacity: 0.30000001192092896">
            <path d="M457.07,293.24s23.8-26.26,28.77-46.93a37.82,37.82,0,0,1,7.41.61S479.05,285.21,457.07,293.24Z" style="fill: #40231a;opacity: 0.30000001192092896;isolation: isolate"/>
          </g>
          <path d="M485.47,237.1a4.68,4.68,0,0,0,.13.61,7.7,7.7,0,0,1,.24,1.94,28.78,28.78,0,0,1-.24,7.18,36.26,36.26,0,0,1-3.16,10.09,128.08,128.08,0,0,1-6.31,11.3,142.92,142.92,0,0,1-14,18.85c-1.95,2.31-3.53,4.13-4.62,5.35l-1.33,1.46c-.12.12-.24.36-.49.48a1.66,1.66,0,0,1,.37-.48l1.21-1.46L461.8,287a151.65,151.65,0,0,0,13.84-19A113.19,113.19,0,0,0,482,256.8a36.75,36.75,0,0,0,3.16-10,34,34,0,0,0,.36-7.05,7.79,7.79,0,0,0-.24-1.95A.89.89,0,0,0,485.47,237.1Z" style="fill: #40231a"/>
          <path d="M444.32,293a32.48,32.48,0,0,1-3.76-3.4,33.43,33.43,0,0,1-3.52-3.77A68.27,68.27,0,0,1,444.32,293Z" style="fill: #40231a"/>
          <path d="M373.55,292.17a11.28,11.28,0,0,1,1.69-3.4,9.64,9.64,0,0,1,2.56-2.92,32.54,32.54,0,0,1-2.19,3.16C374.4,290.84,373.67,292.3,373.55,292.17Z" style="fill: #40231a"/>
          <path d="M327.78,307.37a15.57,15.57,0,0,0,3.28-4.13,14.39,14.39,0,0,0,1.58-5.47,12.58,12.58,0,0,0-5.71-11.92,14.26,14.26,0,0,0-5.22-2.19,15.26,15.26,0,0,0-5.22-.12c.12,0,.24-.12.36-.12.37-.12.73-.12,1.1-.24a13.88,13.88,0,0,1,3.88.12,13.67,13.67,0,0,1,5.34,2.19A12.77,12.77,0,0,1,333,297.77a13.05,13.05,0,0,1-1.7,5.59,14.83,14.83,0,0,1-2.43,3.16,4.94,4.94,0,0,1-.85.73A.42.42,0,0,1,327.78,307.37Z" style="fill: #40231a"/>
          <path d="M288.2,299a20,20,0,0,1-.36-3.77,21.06,21.06,0,0,1,0-3.89A40.18,40.18,0,0,1,288.2,299Z" style="fill: #40231a"/>
          <path d="M291.12,299.1a32.88,32.88,0,0,1-1-7.66A32,32,0,0,1,291.12,299.1Z" style="fill: #40231a"/>
          <path d="M335.79,225.43c0,.12-13.11.24-29.38.24s-29.37-.12-29.37-.24,13.11-.24,29.37-.24S335.79,225.31,335.79,225.43Z" style="fill: #40231a"/>
          <path d="M293.18,225.43c-.12,0-.24-15.07-.24-33.67s0-33.68.24-33.68.24,15.07.24,33.68S293.3,225.43,293.18,225.43Z" style="fill: #40231a"/>
          <path d="M285.05,225.43c-.12,0,.48-15.07,1.21-33.67s1.58-33.68,1.7-33.68-.48,15.07-1.21,33.68S285.17,225.43,285.05,225.43Z" style="fill: #40231a"/>
          <path d="M266.84,317.34l-.37-.36a11.5,11.5,0,0,1-1-1.1,34,34,0,0,1-2.91-4.25,32.93,32.93,0,0,1,.12-32.95,33.42,33.42,0,0,1,2.91-4.26,9.89,9.89,0,0,1,1-1.09L267,273c-.12.12-.12.24-.24.36a10.28,10.28,0,0,0-.85,1.09,34,34,0,0,0-.13,41.34,11.57,11.57,0,0,0,.86,1.09C266.72,317.1,266.84,317.22,266.84,317.34Z" style="fill: #005e7f"/>
          <path d="M380.59,256.8l-.25.48-4.85,9-6.68,6.44,13.36,17.87,11.16-1.82s-1.21-2.55-6.79-3L384.47,275l7.89-12.15" style="fill: #005e7f"/>
          <path d="M368.93,272.72l13.36,17.87,11.16-1.82-1.57-1.46-9.11,1-12.38-16.89Z" style="fill: #fff7df"/>
          <path d="M385.69,280.75c-.13.12-.85-.12-1.58,0s-1.46.6-1.58.48.36-.85,1.46-1S385.81,280.63,385.69,280.75Z" style="fill: #40231a"/>
          <path d="M385.08,278.19c-.12.13-.73-.48-1.58-.48s-1.58.48-1.7.36,0-.24.37-.48a1.71,1.71,0,0,1,1.33-.37,2.51,2.51,0,0,1,1.34.49A.62.62,0,0,1,385.08,278.19Z" style="fill: #40231a"/>
          <path d="M384.59,274.67c-.12.12-.6-.49-1.45-.61s-1.46.24-1.58.12.12-.24.36-.36a2,2,0,0,1,2.43.48C384.59,274.42,384.71,274.67,384.59,274.67Z" style="fill: #40231a"/>
          <path d="M387.14,271.51c-.12.12-.48-.49-1.33-.85s-1.46-.25-1.46-.37a1.51,1.51,0,0,1,1.7,0C387,270.78,387.26,271.51,387.14,271.51Z" style="fill: #40231a"/>
          <path d="M388.23,269.08s-.48-.37-1.21-1l-1.09-1.21a2.29,2.29,0,0,1-.61-.85.79.79,0,0,1,0-.73.8.8,0,0,1,.61-.49,1.7,1.7,0,0,1,1.09.36c.24.25.61.37.85.61a4.12,4.12,0,0,1,.85,1.58,1.82,1.82,0,0,1,0,1.58l-.36-1.46a5.31,5.31,0,0,0-.85-1.33c-.25-.25-.49-.37-.73-.61a1.78,1.78,0,0,0-.85-.24c-.12,0-.12,0-.24.12v.36a3,3,0,0,0,.6.73l1.1,1.22C387.63,268.22,388,268.59,388.23,269.08Z" style="fill: #40231a"/>
          <path d="M388.72,269.32a2,2,0,0,1,.36-1.34,2.71,2.71,0,0,1,3.16-1.09c.12.12.24.24.24.36a.47.47,0,0,1-.12.37L392,268c-.24.25-.49.37-.73.61a5.34,5.34,0,0,1-1.46.61,3,3,0,0,1-1.45.12c0-.12.48-.12,1.33-.49a2.49,2.49,0,0,0,1.22-.73,1.41,1.41,0,0,0,.6-.61c.12-.12.12-.24.25-.24v-.12c-.13,0-.25-.12-.37-.12H391a3,3,0,0,0-.85.24,2,2,0,0,0-1.1.85A6.61,6.61,0,0,1,388.72,269.32Z" style="fill: #40231a"/>
          <path d="M377.8,270.9a1.36,1.36,0,0,1-2.68.49,1.36,1.36,0,1,1,2.68-.49Z" style="fill: #fff7df"/>
          <path d="M421.26,265.31l3.64,23.34,29-4.26c-.61-2.79-16.39-6.07-16.39-6.07l-1.7-15.08Z" style="fill: #005e7f"/>
          <path d="M428.3,278.32a1.11,1.11,0,1,0,.85,2.06,1.2,1.2,0,0,0,.6-1.58A1.16,1.16,0,0,0,428.3,278.32Z" style="fill: #fff7df"/>
          <path d="M424.9,288.65l-.25-2.43,27.93-3.29s1.33.37,1.33,1.34Z" style="fill: #fff7df"/>
          <path d="M437.89,278.07c0,.12-.73.37-1.34.85s-.85,1.22-1.09,1.22,0-.85.73-1.58A1.58,1.58,0,0,1,437.89,278.07Z" style="fill: #40231a"/>
          <path d="M441.16,278.8c0,.12-.48.49-1,1.09s-.48,1.34-.6,1.34-.37-.85.12-1.58S441.16,278.68,441.16,278.8Z" style="fill: #40231a"/>
          <path d="M443.35,282.2c-.12,0-.49-.6-.24-1.45s.85-1.22,1-1.1-.25.61-.49,1.22S443.59,282.2,443.35,282.2Z" style="fill: #40231a"/>
          <path d="M437.16,274.67c0,.12-.73,0-1.46.24s-1.33.49-1.46.37.49-.73,1.34-.86A2.07,2.07,0,0,1,437.16,274.67Z" style="fill: #40231a"/>
          <path d="M435.94,271.39a3.08,3.08,0,0,1-1.45.24,7.11,7.11,0,0,1-1.58-.24c-.36-.13-.61-.13-1-.25-.12-.12-.37-.12-.49-.24s-.24-.49-.12-.73a.68.68,0,0,1,.61-.37h.61c.36,0,.6.13,1,.13a4,4,0,0,1,1.45.73c.85.48,1.1,1,1,1.09s-.48-.36-1.21-.73a7.6,7.6,0,0,0-1.46-.49,2.07,2.07,0,0,0-.85-.12c-.36,0-.6,0-.6.12v.13c.12.12.24.12.36.24s.61.24.85.36l1.46.37A1.55,1.55,0,0,1,435.94,271.39Z" style="fill: #40231a"/>
          <path d="M435.82,271.51a2.73,2.73,0,0,1-.6-1.34,3.25,3.25,0,0,1,0-1.58,2.82,2.82,0,0,1,.24-1,1.18,1.18,0,0,1,.85-.85.69.69,0,0,1,.61.36c.12.12.12.36.24.49a2.67,2.67,0,0,1,.12,1,3.4,3.4,0,0,1-.36,1.58,2.73,2.73,0,0,1-1,1.09,9.42,9.42,0,0,0,.73-1.21,3,3,0,0,0,.25-1.46,1.94,1.94,0,0,0-.13-.85c-.12-.25-.24-.49-.36-.49a1.3,1.3,0,0,0-.49.61,2.27,2.27,0,0,0-.24.85,6,6,0,0,0-.12,1.46A3.29,3.29,0,0,0,435.82,271.51Z" style="fill: #40231a"/>
          <path d="M398.55,210.6l-24.88,54.22,16.39,9.85,34.35-65.16" style="fill: #40231a"/>
          <path d="M439.46,276l-17.84,2.91-10.68-63.7L358.25,219a11.86,11.86,0,0,1-4.13-.37c-14.81-4-12.74-23-11.41-26l73-2.07a15.53,15.53,0,0,1,15.78,13.37Z" style="fill: #40231a"/>
          <path d="M342.1,195.52l.25-27s-3.52-17.51-4.49-24.44c-1.58-10.7-3.77-15.8,13.71-23.34l3.89-1.46,6,.12c7,.49,14.44,6.93,14.69,11.18l6.79,60.79Z" style="fill: #ff703e"/>
          <path d="M343.2,127.08s-5,10.7-4,20.3l18.45,17.75c4.13,4.62,9.23,6.57,15.91,6.93l38.12,4.14,1.09-10-36.18-10.34c-1.46-.24-2.18-1.82-3.28-2.79Z" style="fill: #ff703e"/>
          <path d="M340.16,130.12a2.83,2.83,0,0,1,.73-.49,8.17,8.17,0,0,1,2.43-.73,11.94,11.94,0,0,1,4.13,0l1.21.37a6.74,6.74,0,0,1,1.09.85c.73.61,1.46,1.22,2.19,1.94,1.58,1.46,2.91,3.29,4.61,5.11s3.52,3.77,5.59,5.84,4.12,4.25,6.55,6.44c1.21,1.09,2.43,2.19,3.64,3.4a24.84,24.84,0,0,1,1.94,1.7,5.14,5.14,0,0,0,2.07,1.22L412.64,166h.12v.12c-.12.73-.12,1.46-.24,2.19-.25,2.68-.61,5.23-.85,7.78v.25h-.25l-16.14-1.83-7.65-.85-7.29-.73c-2.42-.24-4.73-.48-6.92-.85A28.83,28.83,0,0,1,367,170.6a20.6,20.6,0,0,1-5.34-2.92c-1.58-1.09-3-2.3-4.49-3.4a152.1,152.1,0,0,1-12.26-11.67c-1.34-1.46-2.43-2.55-3.16-3.28l-.85-.85-.24-.37.24.24.85.86,3.16,3.28c2.79,2.8,6.79,6.93,12.26,11.55a47.31,47.31,0,0,0,4.49,3.4,18.72,18.72,0,0,0,5.34,2.8,30,30,0,0,0,6.31,1.46c2.19.36,4.5.6,6.92.85l7.29.73,7.64.85,16.15,1.7-.24.12c.24-2.43.48-5.1.85-7.78.12-.85.12-1.58.24-2.19l.12.25L376.1,155.89a5.48,5.48,0,0,1-2.31-1.34c-.61-.6-1.21-1.21-1.82-1.7-1.34-1.09-2.43-2.31-3.64-3.4-2.31-2.19-4.5-4.38-6.44-6.44s-3.88-4-5.58-5.84-3.16-3.65-4.62-5.11c-.72-.72-1.45-1.33-2.18-1.94-.37-.24-.73-.61-1.09-.85a1.93,1.93,0,0,0-1.1-.37,14.9,14.9,0,0,0-4-.12,14.39,14.39,0,0,0-2.43.61A2,2,0,0,1,340.16,130.12Z" style="fill: #40231a"/>
          <path d="M349.63,96l1.82,26.26a8.15,8.15,0,0,0,16.27-.61v-.49c-.12-2.55-.37-4.49-.37-4.49s6.32-1,6.44-7.3c0-3.65-.61-12-1.09-18.36a8.34,8.34,0,0,0-8.26-7.66h-3.88a11.79,11.79,0,0,0-11.05,12.4C349.63,95.71,349.63,95.84,349.63,96Z" style="fill: #ffcfbf"/>
          <path d="M367.48,116.38a15.14,15.14,0,0,1-8.26-2.31s1.94,4.62,8.26,4Z" style="fill: #ffa07f"/>
          <path d="M371.36,99a1,1,0,0,1-.85,1,.92.92,0,0,1-1-.73,1,1,0,0,1,.85-1A.77.77,0,0,1,371.36,99Z" style="fill: #40231a"/>
          <path d="M371.73,97.17c-.13.12-.85-.36-1.83-.36s-1.7.48-1.82.36.12-.24.37-.48a2.89,2.89,0,0,1,1.45-.49,2.29,2.29,0,0,1,1.46.49A2.33,2.33,0,0,1,371.73,97.17Z" style="fill: #40231a"/>
          <path d="M362.26,99a1,1,0,0,1-.85,1,.93.93,0,0,1-1-.73,1,1,0,0,1,.86-1C361.77,98.15,362.14,98.51,362.26,99Z" style="fill: #40231a"/>
          <path d="M362.14,97.42c-.13.12-.85-.37-1.83-.37s-1.7.49-1.82.37,0-.25.37-.49a3,3,0,0,1,1.45-.49,2.35,2.35,0,0,1,1.46.49A.45.45,0,0,1,362.14,97.42Z" style="fill: #40231a"/>
          <path d="M365.65,104.59a7.29,7.29,0,0,1,1.58-.24c.25,0,.49-.13.49-.25a1.58,1.58,0,0,0-.12-.73l-.73-1.94a33.3,33.3,0,0,1-1.7-5,33.23,33.23,0,0,1,2.06,4.87l.73,1.94a1.31,1.31,0,0,1,.12,1c-.12.13-.24.37-.36.37h-.36A4.1,4.1,0,0,1,365.65,104.59Z" style="fill: #40231a"/>
          <path d="M362.74,105.32a3.73,3.73,0,0,0,1.09,1.82c.85.73,2.07.61,2.07.85s-.25.25-.73.25a2.94,2.94,0,0,1-1.7-.61,2.57,2.57,0,0,1-.85-1.46A2.11,2.11,0,0,1,362.74,105.32Z" style="fill: #40231a"/>
          <path d="M362.38,93.53c-.12.24-1.09.12-2.19.24s-2.06.49-2.18.24.12-.36.48-.61a4.17,4.17,0,0,1,3.4-.36C362.26,93.16,362.38,93.4,362.38,93.53Z" style="fill: #40231a"/>
          <path d="M371.36,94.38c-.12.24-.85,0-1.7,0s-1.46.12-1.7-.12,0-.37.37-.49a2.44,2.44,0,0,1,1.33-.37,1.86,1.86,0,0,1,1.34.49C371.36,94,371.48,94.26,371.36,94.38Z" style="fill: #40231a"/>
          <path d="M351.82,100.7c-.12,0-4.37-1.34-4.25,3s4.49,3.28,4.49,3.16S351.82,100.7,351.82,100.7Z" style="fill: #ffcfbf"/>
          <path d="M350.72,105.32c-.12,0-.12.12-.24.12a.55.55,0,0,1-.61,0,2,2,0,0,1-1-1.7,3.44,3.44,0,0,1,.12-1.1,1,1,0,0,1,.61-.6.5.5,0,0,1,.49.24c.12.12,0,.24.12.24a.17.17,0,0,0,0-.24A.26.26,0,0,0,350,102a.44.44,0,0,0-.36-.12,1.29,1.29,0,0,0-.85.72,4.47,4.47,0,0,0-.24,1.22,2,2,0,0,0,1.21,1.82c.24.13.49,0,.73-.12S350.72,105.32,350.72,105.32Z" style="fill: #ffa07f"/>
          <path d="M349.39,100.58a2.23,2.23,0,0,1,2.06,1.09c.25.61.37,1.34.61,2a1.48,1.48,0,0,0,1.58,1,1,1,0,0,0,.85-1,3,3,0,0,0,0-1.46,50.4,50.4,0,0,1-.73-6.08,10.31,10.31,0,0,1,1.33-6,5.59,5.59,0,0,1,5.1-2.79c1.34.12,2.55.85,3.89,1a5.27,5.27,0,0,0,4.37-1.46,4.8,4.8,0,0,1,.85-.61,1.83,1.83,0,0,0-.49-1.34c-2.67-2.43-7.4-3.16-10.92-2.31a12.11,12.11,0,0,0-8.26,6.69C348.05,92.67,348.54,97.17,349.39,100.58Z" style="fill: #40231a"/>
          <path d="M372.82,89.88s-16.63-5.35-23.8,9a22.05,22.05,0,0,1-1.09-5.6,12.54,12.54,0,0,1,8.62-11.42C356.67,82,368.57,77.36,372.82,89.88Z" style="fill: #ff703e"/>
          <path d="M358.61,90.24a3.71,3.71,0,0,0,5,1.22,1.82,1.82,0,0,0,.73-.61,2.25,2.25,0,0,0,2.79,1.22,1.91,1.91,0,0,0,1.22-1.46,7.81,7.81,0,0,0,1.57,1.21,1.69,1.69,0,0,0,1.83-.36,1.66,1.66,0,0,0-.13-1.95,3.19,3.19,0,0,0-1.7-1.09,12.28,12.28,0,0,0-6.31-1,8,8,0,0,0-5.46,3" style="fill: #40231a"/>
          <g style="opacity: 0.4000000059604645">
            <path d="M372.85,89.88a7.84,7.84,0,0,0-5.34-2.43,21,21,0,0,0-18.58,11.43,22,22,0,0,1-1.09-5.59,12.54,12.54,0,0,1,8.62-11.43C356.58,82,368.6,77.36,372.85,89.88Z" style="fill: #40231a;opacity: 0.4000000059604645;isolation: isolate"/>
          </g>
          <path d="M349.75,97.17a30.7,30.7,0,0,1,9.71-9.24,64.57,64.57,0,0,1,14.45-6,7.56,7.56,0,0,1,4-.37A3.39,3.39,0,0,1,380.83,84c.36,1.71-2.55,4.14-3.88,5.23-1.34.85-2.68,1.7-4.13,2.43,0,0,0-3-4.86-3.64C361.41,87.08,349.75,97.17,349.75,97.17Z" style="fill: #ff703e"/>
          <g style="opacity: 0.30000001192092896">
            <path d="M343.88,151.32c1.7,4.13,3.4,9.23,5.95,13a22.44,22.44,0,0,0,9.95,8.76,21,21,0,0,0,16.51.24c.37-.12,1.22-.36,1.22-.85,0,0-1.7-.24-2.19-.24-10.44-1.71-11.53-3-16.51-6.93C355.53,162.74,348.61,155.33,343.88,151.32Z" style="fill: #40231a;opacity: 0.30000001192092896;isolation: isolate"/>
          </g>
          <path d="M377.07,181.54a3.74,3.74,0,0,1-.49,1,10.76,10.76,0,0,1-1.7,2.43,17.64,17.64,0,0,1-8,4.86,40.49,40.49,0,0,1-9.35,1.46h-4a3.35,3.35,0,0,1,1.09-.12l2.91-.12a41,41,0,0,0,9.35-1.46,19.33,19.33,0,0,0,8-4.74C375.61,183.61,376.34,182.64,377.07,181.54Z" style="fill: #40231a"/>
          <path d="M422,280.75c0-.12,0-.12-.12-.25s-.12-.48-.12-.73c-.12-.6-.24-1.58-.48-2.79-.49-2.43-1.1-6.08-1.83-10.34-1.45-8.75-3.52-20.91-5.82-34.28-1-6.08-1.94-11.79-2.79-17.14l.24.12-22.83,1.58-6.55.49-1.7.12h0l1.7-.12,6.55-.61L411.06,215h.12v.12q1.27,8,2.91,17.14c2.19,13.37,4.25,25.53,5.71,34.28.73,4.38,1.21,7.9,1.7,10.46l.48,2.79c0,.25.13.61.13.73S422,280.63,422,280.75Z" style="fill: #005e7f"/>
          <path d="M416.4,209.38c.12.13-1.34,1.34-2.92,2.92s-2.79,3-2.79,2.92A16.44,16.44,0,0,1,416.4,209.38Z" style="fill: #005e7f"/>
          <path d="M367.72,121.61c0,.12.12.12.12.24a1.84,1.84,0,0,1,.12.85,6.13,6.13,0,0,1-.36,2.92,7.33,7.33,0,0,1-2.67,3.4,8.24,8.24,0,0,1-5.1,1.34,9.43,9.43,0,0,1-7.77-5.1,10,10,0,0,1-1.09-2.68,1.8,1.8,0,0,1-.12-.85v-.24a23.47,23.47,0,0,0,1.45,3.65,11.9,11.9,0,0,0,2.79,3.16,9.34,9.34,0,0,0,4.74,1.7,8.51,8.51,0,0,0,4.85-1.22,7.43,7.43,0,0,0,2.55-3.28,7,7,0,0,0,.49-2.8Z" style="fill: #40231a"/>
          <path d="M378.89,156.38a1.84,1.84,0,0,1-.12-.85c-.13-.61-.25-1.34-.37-2.31-.24-2.07-.6-4.62-1-7.54s-.61-5.59-.85-7.54a17.4,17.4,0,0,1-.12-2.31V135a1.84,1.84,0,0,1,.12.85c.12.61.24,1.34.37,2.31.24,2.07.6,4.62,1,7.54s.6,5.59.85,7.54c.12,1,.12,1.7.24,2.31A1.8,1.8,0,0,0,378.89,156.38Z" style="fill: #40231a"/>
        </g>
      </g>
    </g>
  </g>
</svg>
