<svg xmlns="http://www.w3.org/2000/svg" viewBox="0 0 480 127">
  <g id="Camada_2" data-name="Camada 2">
    <g id="Camada_1-2" data-name="Camada 1">
      <path d="M0,0H480V24a32,32,0,0,1-32,32H32A32,32,0,0,1,0,24Z" style="fill: #fdc000"/>
      <path d="M370.59,107.2H309V127h61.58Z" style="fill: #fdc000"/>
      <path d="M334,45.75s-6.57-13.7-24.59-19.47l-3-.25s-2.55,1.86-3.65,17.9a31,31,0,0,0,6.32,17,18.15,18.15,0,0,0-2.34,9.19c.49,4.79,6.32,31.47,32.84,32.59,0,0,21.43,1.85,31.65-25,0,0,2.34-10.06-2.54-17a47.5,47.5,0,0,0,5.75-16.79c1-8.7-1.11-15-3.16-18.64a37.77,37.77,0,0,0-12.28,5.53C353.3,35,350.18,35.23,344.23,46,344.23,45.75,338.28,43.93,334,45.75Z" style="fill: #160c09"/>
      <path d="M306.87,28.71s-.86,6-1.11,10.81c-.49,5,.25,11,5.5,19.47a2.41,2.41,0,0,1,.25,2.06C311,62.16,309.66,71,311,75.77c2.09,7.35,12.27,24.75,29.19,23.64S363.44,86,363.44,86s5.75-9.19,4.72-14a59.61,59.61,0,0,1-1.31-10.31c0-2.06,3-9.94,3-9.94s2.67-9,2.3-14.48A90.79,90.79,0,0,0,370.79,27S358,33.41,355.6,36s-7.31,6.64-9.4,12.38a60.88,60.88,0,0,0-13.38-.5s-6-9-11.42-12.37C315.74,32.42,313.68,30.32,306.87,28.71Z" style="fill: #fd4100"/>
      <path d="M308.68,32.18s.86,12.62.7,15c0,0,.49,3.18,4.35,9.2a24.49,24.49,0,0,0,3.65,3.17c.7.25-3.16-6-3.16-6V51.27a16.27,16.27,0,0,0,3.65,4.42c2.1,1.36.25-1.36.25-1.36s-1.56-7.1-1.32-7.84,6,5,6,5a2.3,2.3,0,0,0,2.55,1.12L324,45.75s6,4.53,6.82,4.16-8.17-10.56-8.17-10.56S316.11,32.38,308.68,32.18Z" style="fill: #faedd7"/>
      <path d="M348.5,50.28s5.75-14.47,20.57-19.46c0,0,.86,12.37.24,14.72s-5.74,12.13-5.74,12.13,1.1-5.53.69-7.1c0,0-2.54,5.53-3.9,6.4,0,0,1.85-9.45,1.32-11.51,0,0-6.2,5.28-6.82,6.23s.87-5.78.25-6.64S348.5,50.28,348.5,50.28Z" style="fill: #faedd7"/>
      <path d="M326.45,96.23s-4.51-8.7-6.81-12.87c-2.3-3.92-5.5-11.26-3-13.73a7.68,7.68,0,0,1,6.2-1.86s7.55,2.06,8.38.5a6.08,6.08,0,0,0,.24-3.92s1.11-4.79,7.56-5,7.3,4.41,7.3,4.41-.49,5,2.1,5a14.25,14.25,0,0,0,5.5-1.61s7.76-1.61,9.15,3.18a12,12,0,0,1-.69,8.7s-5.5,8.7-6.57,11.06l-1.11,2.31-1.85,3.42C353.39,96,339,103.94,326.45,96.23Z" style="fill: #faedd7"/>
      <path d="M338.28,70.74V68.18s-3-.86-3.9-2.31c-.7-1.36-.7-3.42.86-4.16s7.76,0,7.76,0,3.16,1.61,1.85,3.42a11.31,11.31,0,0,1-4.36,3l-.24,3a6.35,6.35,0,0,1,3.4.25c1.32.74,3.41,2.06,3.41,2.06s4.35,1.11,5.22-.25c0,0,.69-3.17,2.34-2.31a1.79,1.79,0,0,1,.86,2.07c0,.12-.12.12-.12.24A3.83,3.83,0,0,1,353,75a8.44,8.44,0,0,1-7.31-.74c-2.67-1.86-2.55-1.86-5.75-1.86s-3.65.74-6.32,2.06-7.06,1.12-8.05.5c-.86-.87-2.54-2.06-1.31-3.42s2.3,2.06,2.3,2.06,1.31,1.85,4.72,0C334.87,71.86,336,71,338.28,70.74Z" style="fill: #160c09"/>
      <path d="M330.11,60.43a1.86,1.86,0,0,1-.25.87s0,1.36,2.34-1.12a7.43,7.43,0,0,0-3.41-3.42s-1.11.25-.24,1.11l1.1,1.12a13.48,13.48,0,0,0-3.89-.5c-1.32.25-3.9.74-4.73,2.06,0,0,.25.75.7.5a7.07,7.07,0,0,1,4.35-1.61A6.45,6.45,0,0,1,330.11,60.43Z" style="fill: #160c09"/>
      <path d="M349,61.3s-2.34-.25-2.54-1.86,3.4-3,3.4-3,.7.74,0,.87-1.31.49-1.56,1.11c0,0,4.73-.74,7.07,0a8.21,8.21,0,0,1,3.16,1.86s-.25.86-1.11.24a5.25,5.25,0,0,0-4.35-1.36c-1.56,0-3,.13-4.52.25A2.21,2.21,0,0,1,349,61.3Z" style="fill: #160c09"/>
      <path d="M85.92,61h22.9V94.25a53.62,53.62,0,0,1-16.09,7.43,65.89,65.89,0,0,1-18,2.59A47.34,47.34,0,0,1,52.29,99a38.76,38.76,0,0,1-15.6-14.61,40.24,40.24,0,0,1-5.62-21.28,40.83,40.83,0,0,1,5.62-21.28,38.9,38.9,0,0,1,15.77-14.6A49.23,49.23,0,0,1,75.32,22a51.84,51.84,0,0,1,20.61,3.88,38.8,38.8,0,0,1,15.15,11.3L94.21,52.14q-7.39-8.66-17.53-8.66c-5.83,0-10.43,1.77-13.88,5.28s-5.13,8.29-5.13,14.35c0,5.9,1.68,10.68,5.09,14.27s7.92,5.41,13.59,5.41A24.49,24.49,0,0,0,86,80.89V61Z" style="fill: #160c09"/>
      <path d="M74.71,105.26a49.35,49.35,0,0,1-22.95-5.32,40.05,40.05,0,0,1-16-15A42.13,42.13,0,0,1,30,63.11a41.58,41.58,0,0,1,5.79-21.82A39.85,39.85,0,0,1,52,26.32,50.68,50.68,0,0,1,75.28,21a53.23,53.23,0,0,1,21,4,39.64,39.64,0,0,1,15.52,11.59l.62.78L94.09,53.58l-.66-.78C88.71,47.31,83,44.51,76.64,44.51c-5.5,0-9.9,1.69-13.14,5s-4.84,7.88-4.84,13.65c0,5.61,1.6,10.19,4.8,13.57s7.47,5.07,12.85,5.07a24.16,24.16,0,0,0,8.58-1.56V60h25V94.79l-.45.29A54.53,54.53,0,0,1,93,102.62,67.93,67.93,0,0,1,74.71,105.26Zm.57-82.2a48.24,48.24,0,0,0-22.37,5.12A38,38,0,0,0,37.55,42.41a39.32,39.32,0,0,0-5.5,20.7,39.62,39.62,0,0,0,5.5,20.75A38.17,38.17,0,0,0,52.74,98.09a46.88,46.88,0,0,0,22,5.11,65.57,65.57,0,0,0,17.73-2.56,51.79,51.79,0,0,0,15.36-7V62H87V81.59l-.61.25a25.84,25.84,0,0,1-10,2c-5.91,0-10.76-1.94-14.33-5.7s-5.38-8.82-5.38-15c0-6.31,1.85-11.38,5.42-15.09s8.54-5.57,14.58-5.57c6.73,0,12.68,2.76,17.65,8.21L109.6,37.09A37.88,37.88,0,0,0,95.48,26.86,51.2,51.2,0,0,0,75.28,23.06Z" style="fill: #fd4100"/>
      <path d="M184,77.59h-42.5A10.43,10.43,0,0,0,146,82.91a15.09,15.09,0,0,0,7.84,1.85,20.22,20.22,0,0,0,6.77-1,23.78,23.78,0,0,0,6-3.47l13.18,13.36q-8.94,9.9-26.73,9.9a43.92,43.92,0,0,1-19.46-4.08,31.07,31.07,0,0,1-13-11.38,30.31,30.31,0,0,1-4.6-16.38,30.57,30.57,0,0,1,4.52-16.46A31.13,31.13,0,0,1,133,44a40.6,40.6,0,0,1,34.61-.33,29.51,29.51,0,0,1,12.2,10.89,31.79,31.79,0,0,1,4.51,17.16C184.36,72,184.24,74,184,77.59ZM144.46,59.32a10.09,10.09,0,0,0-3.37,6.06h19.67a10.41,10.41,0,0,0-3.37-6,10.72,10.72,0,0,0-12.93,0Z" style="fill: #160c09"/>
      <path d="M153.08,104.56a44.86,44.86,0,0,1-19.91-4.2A32.21,32.21,0,0,1,119.79,88.6a31.11,31.11,0,0,1-4.73-16.95,31.27,31.27,0,0,1,4.69-17A32.82,32.82,0,0,1,132.55,43a41.78,41.78,0,0,1,35.56-.37,30.61,30.61,0,0,1,12.6,11.26,32.65,32.65,0,0,1,4.68,17.74c0,.29,0,1.19-.33,6l0,1H143.19A9.26,9.26,0,0,0,146.55,82a14,14,0,0,0,7.31,1.69,18.82,18.82,0,0,0,6.4-1A21.83,21.83,0,0,0,166,79.4l.7-.53,14.49,14.68-.65.74C174.39,101.14,165.15,104.56,153.08,104.56ZM150.7,40.92a37.49,37.49,0,0,0-17.24,3.92,29.89,29.89,0,0,0-12,10.93,29.23,29.23,0,0,0-4.35,15.88,29.09,29.09,0,0,0,4.43,15.84,30.18,30.18,0,0,0,12.56,11,43.17,43.17,0,0,0,19,4c11,0,19.54-3,25.29-8.83l-11.86-12A23.45,23.45,0,0,1,161,84.76a20.72,20.72,0,0,1-7.1,1.08,16.2,16.2,0,0,1-8.33-2A11.35,11.35,0,0,1,140.64,78l-.53-1.4h43c.17-3,.29-4.62.29-4.91A30.86,30.86,0,0,0,179,55.07a28.46,28.46,0,0,0-11.74-10.52A37.68,37.68,0,0,0,150.7,40.92ZM162,66.41H139.86l.25-1.24a11.17,11.17,0,0,1,3.69-6.64A10.93,10.93,0,0,1,151,56.18a10.71,10.71,0,0,1,7.14,2.44,11.37,11.37,0,0,1,3.69,6.59Zm-19.62-2.06h17a8.64,8.64,0,0,0-2.71-4.21,8.51,8.51,0,0,0-5.83-1.94,8.78,8.78,0,0,0-5.83,1.9A9.28,9.28,0,0,0,142.41,64.35Z" style="fill: #fd4100"/>
      <path d="M237.32,100.27c-3.81,2.19-9,3.26-15.51,3.26-8.58,0-15.15-2.06-19.79-6.23s-6.94-10.39-6.94-18.68V62.91H186.7V44.39h8.38V27.19h25.25V44.34h12.52V62.86H220.33V78.37a6.3,6.3,0,0,0,1.43,4.37,5,5,0,0,0,3.82,1.57,9.93,9.93,0,0,0,5.71-1.69Z" style="fill: #160c09"/>
      <path d="M221.81,104.56c-8.79,0-15.69-2.18-20.45-6.47s-7.27-10.89-7.27-19.47V63.94h-8.37V43.35h8.37V26.16H221.4V43.31h12.52V63.89H221.4V78.37A5,5,0,0,0,222.59,82a3.92,3.92,0,0,0,3,1.24,9,9,0,0,0,5.14-1.48l1.1-.75,6.74,19.72-.74.41C233.88,103.45,228.5,104.56,221.81,104.56ZM187.73,61.87h8.38V78.62c0,8,2.21,14,6.56,17.94s10.84,6,19.09,6c5.92,0,10.72-.91,14.29-2.72l-5.34-15.59a11.08,11.08,0,0,1-5.13,1.19A6,6,0,0,1,221,83.53a7.18,7.18,0,0,1-1.73-5.08V61.87h12.52V45.42H219.3V28.22H196.11V45.38h-8.38Z" style="fill: #fd4100"/>
      <path d="M244.47,23.85h26.36v58h35.3v20.54H244.47Z" style="fill: #fd4100"/>
      <path d="M307.2,103.45H243.44V22.81h28.41v58h35.31v22.6Zm-61.71-2.06h59.66V82.91H269.84v-58h-24.3v76.51Z" style="fill: #160c09"/>
      <path d="M448,41V90.17c0,11.67-3.24,20.46-9.64,26.31s-15.65,8.83-27.55,8.83a70,70,0,0,1-17.08-2,43.73,43.73,0,0,1-13.51-5.65l8.5-17.28a29.11,29.11,0,0,0,9,4.37,36.19,36.19,0,0,0,10.51,1.69c5,0,8.75-1.07,11-3.26s3.45-5.36,3.45-9.53V92.56c-3.82,4.33-9.45,6.52-16.88,6.52a30.21,30.21,0,0,1-14.57-3.63A27.69,27.69,0,0,1,380.48,85a30,30,0,0,1-4-15.55,29.8,29.8,0,0,1,4-15.51,27.57,27.57,0,0,1,10.8-10.39,30.21,30.21,0,0,1,14.57-3.63c8.34,0,14.37,2.68,18.11,8.09V41ZM420,76.56a9.28,9.28,0,0,0,2.95-7.14A9,9,0,0,0,420,62.37a10.51,10.51,0,0,0-7.44-2.68A10.94,10.94,0,0,0,405,62.37a9.14,9.14,0,0,0-3,7.05,9.38,9.38,0,0,0,3,7.14,11.5,11.5,0,0,0,15,0Z" style="fill: #fd4100"/>
      <path d="M410.78,126.34a72.41,72.41,0,0,1-17.33-2,43.68,43.68,0,0,1-13.83-5.82l-.74-.49,9.44-19.22,1,.74a27.48,27.48,0,0,0,8.74,4.21,35.52,35.52,0,0,0,10.22,1.65c4.77,0,8.26-1,10.35-3a10.83,10.83,0,0,0,3.08-7.38c-3.9,3.34-9.2,5-15.81,5a31.55,31.55,0,0,1-15.06-3.76,28.68,28.68,0,0,1-11.17-10.8,31.22,31.22,0,0,1-4.19-16.09,30.75,30.75,0,0,1,4.19-16,29,29,0,0,1,11.17-10.77,31.2,31.2,0,0,1,15.06-3.75c7.39,0,13.14,2.1,17.08,6.23V40H449v50.2c0,11.92-3.37,21-10,27.1S422.89,126.34,410.78,126.34Zm-29.31-9a43.53,43.53,0,0,0,12.43,5,70.65,70.65,0,0,0,16.84,1.94c11.62,0,20.65-2.89,26.85-8.54s9.32-14.23,9.32-25.57V42h-22v9.24l-1.89-2.72c-3.49-5.07-9.32-7.63-17.24-7.63a29.57,29.57,0,0,0-14.08,3.51,27,27,0,0,0-10.39,10,28.68,28.68,0,0,0-3.86,15,29.31,29.31,0,0,0,3.86,15A27.07,27.07,0,0,0,391.73,94.5,29.22,29.22,0,0,0,405.81,98c7.1,0,12.52-2.06,16.09-6.14l1.81-2.06v3.87c0,4.46-1.27,7.92-3.78,10.32s-6.44,3.54-11.78,3.54a36.44,36.44,0,0,1-10.8-1.73A30.85,30.85,0,0,1,389,102Zm31.07-37a11.77,11.77,0,0,1-8.17-3A10.3,10.3,0,0,1,401,69.42a10.13,10.13,0,0,1,3.28-7.83,11.8,11.8,0,0,1,8.25-3,11.61,11.61,0,0,1,8.13,3A10.1,10.1,0,0,1,424,69.42a10.28,10.28,0,0,1-3.29,7.88A11.39,11.39,0,0,1,412.54,80.31Zm0-19.63a9.61,9.61,0,0,0-6.85,2.43,8.89,8.89,0,0,0,0,12.66,10.49,10.49,0,0,0,13.55,0,8.25,8.25,0,0,0,2.62-6.39,8.07,8.07,0,0,0-2.62-6.31A9.57,9.57,0,0,0,412.54,60.68Z" style="fill: #160c09"/>
      <path d="M314.88,124a6.61,6.61,0,0,1-2.8-2.64,7.47,7.47,0,0,1-1-3.83,7.14,7.14,0,0,1,3.82-6.48,8.61,8.61,0,0,1,4-1,8.72,8.72,0,0,1,3.65.74,7.11,7.11,0,0,1,2.67,2.11l-3,2.68a3.75,3.75,0,0,0-3.08-1.65,3.15,3.15,0,0,0-2.38.95,4.08,4.08,0,0,0,0,5.11,3.22,3.22,0,0,0,2.38,1,3.78,3.78,0,0,0,3.08-1.65l3,2.68a6.7,6.7,0,0,1-2.67,2.1,8.57,8.57,0,0,1-3.65.75A7.61,7.61,0,0,1,314.88,124Z" style="fill: #160c09"/>
      <path d="M326.54,110.54h4.72V121h6.36v3.67H326.54Z" style="fill: #160c09"/>
      <path d="M340.54,123.21a6.54,6.54,0,0,1-1.81-4.91v-7.76h4.72v7.63a3.75,3.75,0,0,0,.53,2.27,2,2,0,0,0,1.6.7,1.92,1.92,0,0,0,1.6-.7,3.66,3.66,0,0,0,.54-2.27v-7.63h4.64v7.76a6.58,6.58,0,0,1-1.81,4.91A7,7,0,0,1,345.5,125,6.77,6.77,0,0,1,340.54,123.21Z" style="fill: #160c09"/>
      <path d="M367.75,118.63a3.46,3.46,0,0,1,.7,2.14,3.27,3.27,0,0,1-1.52,2.89,8.17,8.17,0,0,1-4.43,1h-7.92V110.58h7.51a7.38,7.38,0,0,1,4.23,1,3.15,3.15,0,0,1,1.43,2.68,3.29,3.29,0,0,1-.49,1.78,3.6,3.6,0,0,1-1.44,1.28A3.64,3.64,0,0,1,367.75,118.63Zm-8.54-4.79V116h2.22c1,0,1.56-.33,1.56-1s-.53-1-1.56-1h-2.22Zm4.44,6.35c0-.74-.54-1.11-1.56-1.11h-2.83v2.23h2.83C363.11,121.31,363.65,120.94,363.65,120.19Z" style="fill: #160c09"/>
    </g>
  </g>
</svg>
